<?xml version="1.0" encoding="utf-8"?>
<!-- Generator: Adobe Illustrator 21.0.0, SVG Export Plug-In . SVG Version: 6.00 Build 0)  -->
<svg version="1.1" id="Layer_1" xmlns="http://www.w3.org/2000/svg" xmlns:xlink="http://www.w3.org/1999/xlink" x="0px" y="0px"
	 viewBox="0 0 75 75" style="enable-background:new 0 0 75 75;" xml:space="preserve">
<style type="text/css">
	.st0{fill:none;}
	.st1{fill:#FFFFFF;}
</style>
<rect x="35.2" y="17.6" class="st1" width="2.5" height="42.8"/>
<path class="st1" d="M21.3,20.6c-2.6,0.4-4.3,2-5.4,4c-1.4,2.4-2.4,4.8-3.6,7.3c-0.1,0.3-0.3,0.4-0.6,0.4c-1.7,0-3.3,0-5,0
	c-0.7,0-0.9,0.1-1.2,0.7c-0.6,1.4,0.1,2.7,1.7,3.3c0.8,0.3,1.7,0.4,2.6,0.4c-0.7,1.4-1.3,2.8-1.9,4.2c-0.1,0.2-0.2,0.4-0.2,0.7
	c0,5.6,0,11.2,0.1,16.7c0,1.5,1,2.4,2.7,2.4c2.5,0,5,0,7.5,0c1.7,0,2.6-0.9,2.6-2.4c0-1.4,0-2.8,0-4.2c0-0.3,0.1-0.4,0.4-0.4
	c4.1,0,8.2,0,12.4,0V48c-1.8,0-3.7,0-5.5,0c-1.2,0-2-0.7-2-1.6c0-1,0.9-1.7,2-1.7c1.8,0,3.7,0,5.5,0V34.7c-6,0-11.9,0-17.9,0
	c-0.1-0.1,0-0.1,0-0.2c1.2-2.5,2.4-5,3.7-7.4c0.3-0.6,0.7-1.1,1.2-1.6c0.7-0.8,1.7-1.2,2.9-1.2c3.4,0,6.7,0,10.1,0v-3.8
	c-3.4,0-6.9,0-10.3,0C22.5,20.5,21.9,20.5,21.3,20.6z M16.5,41.7c2.1,0,3.8,1.6,3.8,3.5c0,1.9-1.8,3.5-3.9,3.5
	c-2.1,0-3.9-1.6-3.9-3.5C12.7,43.2,14.4,41.7,16.5,41.7z"/>
<path class="st1" d="M67.1,33c-0.2-1.2-0.8-2.3-2.8-2.3c-1.7,0-3,1-3.4,1.6c-0.2,0-0.1,0.1-0.2,0l-0.4-1.8c-0.1-0.2-0.1-0.2-0.2-0.5
	c-0.7-2-1.8-3.7-3.2-5c-1.6-1.4-3.5-2.5-6-3c-3.8-0.9-7.6-1.3-11.4-1.4c0,0,0,0,0,0l-0.1,1v2.6v0.2c0,0,8.7,0.3,13.4,2.2
	c0.9,0.8,2.4,0.9,4.3,5.6c0.3,0.7,2.1,2.7,0,2.7c-2.1,0-17.7,0-17.7,0v0v0.5v2.9v6.2c0,0,7.4,0,8,0.2c0.5,3.4-2.4,3.7-2.4,3.7h-5.6
	v5.6c4,0,7.9,0,11.9,0c0.6,0.6,1.1,1.4,1.5,2.6c0.8,2.2,2.3,3.5,4.2,3.9c0.3,0.1,0.6,0.1,1,0.2c0.2,0,0.3,0,0.5,0c0.1,0,0.1,0,0.2,0
	c0,0,0.1,0,0.1,0c0.2,0,0.3,0,0.5,0c2-0.3,3.4-0.6,4.4-2.2c0.9-1.3,1.3-3.2,1.4-5.3c0,0,0,0,0,0c0,0,0,0,0,0c0,0,0-0.1,0-0.1h0
	c0-2.1,0-4.2,0-6.3c0-3.5-0.7-6.9-2.2-10c-0.1-0.1-0.1-0.2-0.1-0.3c0.9-0.1,2.1,0.5,2.8,0.1C66.7,35.6,67.4,34.6,67.1,33z
	 M60.5,46.7c-0.9,0.5-3,0.2-3.9,0.3c-1.2,0.1-1.4,0-2.5-0.4c-1.2-0.3-1.4-1.1-0.6-2c1.6-1.8,3.5-3.2,5.9-3.7
	c1.5-0.3,2.5,0.6,2.9,2.2C62.6,44.8,62,46,60.5,46.7z"/>
</svg>
