<?xml version="1.0" encoding="utf-8"?>
<!-- Generator: Adobe Illustrator 21.0.0, SVG Export Plug-In . SVG Version: 6.00 Build 0)  -->
<svg version="1.1" id="Layer_1" xmlns="http://www.w3.org/2000/svg" xmlns:xlink="http://www.w3.org/1999/xlink" x="0px" y="0px"
	 viewBox="0 0 75 75" style="enable-background:new 0 0 75 75;" xml:space="preserve">
<g>
	<path fill="#cdc7c7" d="M73.6,17.5c-0.3-0.5-0.7-1-1-1.6c-1.4-2.2-2.8-4.4-4.2-6.6C68.2,9,68,8.7,67.5,8.8c-0.2,0-0.4,0-0.6,0
		c-0.4,0-0.7,0.2-1,0.4c-4.2,2.8-8.4,5.6-12.6,8.4c-0.7,0.4-1.1,1-1.4,1.8c-0.4,1.2-0.9,2.5-1.3,3.7c-0.3,0.7-0.3,1.5,0.1,2.1
		c0.2,0.4,0.1,0.6-0.2,0.9c-0.9,0.7-1.6,1.4-2.2,2.3c-0.3,0.4-0.6,0.9-0.9,1.5c-0.2-0.6-0.4-1.1-0.5-1.6c-1-3.1-3.8-5.1-7-5.1
		c-7.9,0-15.8,0-23.7,0c-3.2,0-6,2.1-7,5.1c-0.5,1.6-1,3.2-1.5,4.9c-0.1,0.5-0.4,0.7-0.9,0.7c-0.7,0-1.4,0-2.2,0
		c-1.6,0.1-2.9,1.1-3.3,2.6c-0.3,1.3,0.3,3.2,1.9,3.8c0.2,0.1,0.4,0.1,0.4,0.3c-0.7,0.5-1.2,1-1.7,1.7c-0.7,0.9-1,2-1.1,3.2
		c0,0,0,0.1,0,0.1c0.1,0.2,0.1,0.4,0.1,0.7c0,3.5,0,7,0,10.5c0,1.2,0.6,2,1.6,2.3c0.6,0.2,0.7,0.5,0.7,1.1c0,1.4,0,2.8,0,4.3
		c0,1.1,0.7,1.8,1.8,1.9c1.5,0,3.1,0,4.6,0c0.5,0,0.9-0.2,1.2-0.6c0.4-0.5,0.6-1.1,0.6-1.7c0-1.2,0-2.4,0-3.7c0-1.1,0-1.1,1.1-1.1
		c10.3,0,20.7,0,31,0c0.1,0,0.3,0,0.4,0c0.5,0,0.7,0.2,0.7,0.7c0,0.2,0,0.5,0,0.7c0,1.2,0,2.4,0,3.7c0,1.2,0.7,2,1.8,2
		c1.5,0,3,0,4.5,0c0.8,0.1,1.3-0.4,1.7-1.1c0.2-0.4,0.2-0.7,0.2-1.1c0-1.2,0-2.4,0-3.5c0-0.8,0.1-1.3,0.9-1.6
		c1.2-0.5,1.5-1.6,1.6-2.9c0-3.3,0-6.7,0-10c0-0.7-0.1-1.3-0.3-2c-0.4-1.7-1.4-2.9-2.9-3.8c1.8-0.5,2.8-1.9,2.6-3.8
		c-0.2-1.6-1.6-2.8-3.3-2.8c-0.7,0-1.3,0-2,0c-0.8,0-0.9-0.1-0.8-0.9c0.2-2.1,1.4-3.7,2.9-5c0.6-0.5,0.6-0.5,1,0.2
		c0.5,0.9,1.3,1.3,2.4,1.3c1,0,2,0,3,0.1c1,0.1,1.9-0.1,2.7-0.7c4.1-2.8,8.2-5.5,12.3-8.2c0.5-0.3,0.9-0.7,1-1.3c0-0.1,0-0.2,0-0.4
		C73.9,18.3,73.8,17.9,73.6,17.5z M9.4,50.9c-1.8,0-3.2-1.5-3.2-3.2c0-1.8,1.5-3.2,3.2-3.2c1.7,0,3.2,1.5,3.1,3.2
		C12.6,49.5,11.1,50.9,9.4,50.9z M36,54.5c-2.6,0-5.3,0-7.9,0c-2.6,0-5.3,0-7.9,0c-0.5,0-0.6-0.1-0.6-0.6c0-1.1,0-2.1,0-3.2
		c0-0.3,0-0.5,0.5-0.5c5.3,0,10.7,0,16,0c0.3,0,0.4,0.1,0.4,0.4c0,1.1,0,2.2,0,3.3C36.5,54.3,36.4,54.5,36,54.5z M8.9,37.3
		c0.6-2.3,1.3-4.5,1.9-6.7c0.2-0.6,0.3-1.1,0.5-1.7c0.7-2.3,2.7-3.8,5-3.8c7.9,0,15.8,0,23.7,0c2.3,0,4.3,1.5,5,3.8
		c0.7,2.6,1.5,5.3,2.2,7.9c0,0.2,0.1,0.3,0.1,0.5C34.5,37.3,21.7,37.3,8.9,37.3z M50.1,47.7c0,1.8-1.4,3.2-3.2,3.2
		c-1.8,0-3.2-1.4-3.2-3.2c0-1.8,1.4-3.2,3.2-3.2C48.6,44.5,50.1,46,50.1,47.7z M56.3,26c-0.8,0.8-1.9,0.8-2.9,0.2
		c1.1-0.7,1.3-1.1,1-1.6c-0.6-0.9-1.2-0.2-1.9,0c-0.2-1,0.4-2,1.3-2.3c1-0.4,2.1,0,2.7,1.1C57.2,24.3,57.1,25.3,56.3,26z M66.4,22.1
		c0.1,0.1,0.4,0.4,0,0.5c-0.3,0.1-0.6,0.8-0.9,0.1c-0.3-0.5-0.5-0.6-1-0.3c-0.1,0.1-0.2,0.1-0.3,0.1c-1,0.3-1.2,0.2-1.4-0.8
		c-0.1-0.3,0.1-0.3,0.3-0.3c0.6-0.1,1.1-0.3,1.6-0.6c0.3-0.2,0.7-0.5,0.5-1c-0.2-0.5-0.6-0.5-1.1-0.4c-0.3,0.1-0.8,0.1-1.2,0.2
		c-0.8,0.1-1.6,0-2.1-0.8c-0.5-0.8-0.4-1.7,0.1-2.4c0.3-0.4,0.3-0.7,0-1.1c-0.4-0.4,0-0.5,0.3-0.7c0.3-0.2,0.5-0.4,0.7,0.1
		c0.2,0.5,0.4,0.5,0.8,0.3c0.1,0,0.1-0.1,0.2-0.1c0.8-0.3,1.2-0.1,1.2,0.8c0,0.3-0.1,0.3-0.3,0.3c-0.5,0.1-1,0.3-1.5,0.6
		c-0.3,0.2-0.5,0.5-0.4,0.9c0.1,0.4,0.5,0.4,0.8,0.3c0.5-0.1,1-0.2,1.5-0.3c1-0.2,1.8,0.2,2.3,1c0.4,0.8,0.4,1.6-0.3,2.4
		C66,21.5,66.1,21.8,66.4,22.1z"/>
</g>
</svg>
