<?xml version="1.0" encoding="utf-8"?>
<!-- Generator: Adobe Illustrator 21.0.0, SVG Export Plug-In . SVG Version: 6.00 Build 0)  -->
<svg version="1.1" id="Layer_1" xmlns="http://www.w3.org/2000/svg" xmlns:xlink="http://www.w3.org/1999/xlink" x="0px" y="0px"
	 viewBox="0 0 75 75" style="enable-background:new 0 0 75 75;" xml:space="preserve">
<style type="text/css">
	.st0{fill:#63C3B3;}
	.st1{fill:#5EC1B0;}
	.st2{fill:#5DC1B0;}
	.st3{fill:#61C2B1;}
	.st4{fill:#5CC0AF;}
	.st5{fill:#6BC5B6;}
</style>
<g>
	<path class="st0" d="M66.6,46.9c-1.3-0.6-1.5-1.1-1.2-2.4c0.6-2.3,0.8-4.6,0.8-7.3c0.1-1.8-0.1-3.8-0.6-5.8
		c-3.6-17.2-18.6-28.1-36-26.2C11.6,7.3-1.9,24.5,1.7,43.4c4.3,22.6,29,33.5,48.8,21.9c1-0.6,1.3-0.3,2,0.4c2.3,2.7,5.3,4.2,8.8,4.3
		c6,0.2,10.9-3.7,12.2-9.7C74.8,54.9,72,49.2,66.6,46.9z M49.9,64.9C30.5,76.5,4.8,64,2.2,41.6C0.2,24.4,11.1,9.5,28,6.1
		c17.4-3.4,34.9,9.1,37.2,26.7c0.2,1.5,0.4,3,0.3,4.4c0.1,2.5-0.3,5-0.8,7.4c-0.2,0.9-0.5,1.3-1.6,1.2c-9.4-0.9-16,8-12.5,16.8
		C51.1,63.7,51,64.2,49.9,64.9z M61.8,68.9c-6.1,0-11-5-11-11c0-6.1,5-11,11-11c6.1,0,11,5,11,11C72.8,63.9,67.8,68.9,61.8,68.9z"/>
	<path class="st1" d="M33.1,51.3c-4.2,0-8.3,0-12.5,0c-1.3,0-1.8-0.3-1.8-1.7c0.2-4.9,2.2-8.9,6-12c0.8-0.6,1.4-0.8,2.3-0.1
		c3.8,2.9,8,2.9,12-0.1c0.8-0.6,1.3-0.6,2,0c4,3,6,7.1,6.3,12.1c0.1,1.3-0.4,1.8-1.7,1.8C41.5,51.2,37.3,51.3,33.1,51.3z"/>
	<path class="st1" d="M40.3,29.8c0,4.1-3.3,7.5-7.1,7.6c-4.1,0-7.4-3.5-7.4-7.7c0-4.2,3.3-7.5,7.4-7.5
		C37.2,22.2,40.3,25.5,40.3,29.8z"/>
	<path class="st2" d="M50.3,37.8c-0.6,0-1.1-0.2-1.5-0.5c-4.1-1.9-6.9-6.6-6.8-11.1c0-1.6,1-2.3,2.2-3c0.1-0.1,0.4-0.2,0.5-0.1
		c1.6,0.7,1.6,2.4,2.4,3.6c0.5,0.8,0,1.4-0.6,1.8c-1.8,1.1-0.6,2.1,0,3.1c0.6,1,1.3,2,2.6,0.8c0.7-0.6,1.4-0.5,2,0.3
		c0.4,0.5,0.9,1,1.2,1.6c0.4,0.6,1.4,1.1,0.8,2C52.3,37.1,51.4,37.7,50.3,37.8z"/>
	<path class="st3" d="M55.8,29.6c0-3.4-1.6-5.7-4.7-6.9c-0.5-0.2-1.3-0.1-1-0.9c0.3-0.6,1-0.1,1.5,0c3,1,5.2,4.2,5.2,7.6
		c0,0.7,0.3,1.8-0.6,1.8C55.4,31.1,56,30,55.8,29.6z"/>
	<path class="st4" d="M54,29.2c0,0.3,0,0.6,0,0.9c0,0.2-0.2,0.5-0.3,0.5c-0.4,0.1-0.5-0.3-0.5-0.6c0.1-2.4-0.8-4.1-3.1-4.9
		c-0.2-0.1-0.5-0.2-0.4-0.5c0.2-0.5,0.6-0.3,0.9-0.3C52.4,24.8,54,27,54,29.2z"/>
	<path class="st5" d="M63,57.6c0,1,0,1.9,0,2.9c0,0.5-0.1,0.8-0.7,0.8c-0.6,0-0.7-0.4-0.7-0.9c0-0.9,0-1.8,0-2.7
		c0-0.9,0.2-1.9-1.3-1.8c-0.1,0-0.4-0.1-0.5-0.2c-0.1-0.1,0-0.5,0-0.5c1-0.2,1.6-1.2,2.6-1.5c0.4-0.1,0.5,0.4,0.5,0.8
		C63,55.6,63,56.6,63,57.6z"/>
</g>
</svg>
