<?xml version="1.0" encoding="utf-8"?>
<!-- Generator: Adobe Illustrator 21.0.0, SVG Export Plug-In . SVG Version: 6.00 Build 0)  -->
<svg version="1.1" id="Layer_1" xmlns="http://www.w3.org/2000/svg" xmlns:xlink="http://www.w3.org/1999/xlink" x="0px" y="0px"
	 viewBox="0 0 75 75" style="enable-background:new 0 0 75 75;" xml:space="preserve">
<style type="text/css">
	.st0{fill:#62C3B2;}
	.st1{fill:#5AC0AE;}
	.st2{fill:#5FC2B1;}
	.st3{fill:#5CC1B0;}
</style>
<g>
	<path class="st0" d="M73,54c-1.3-4.6-4.3-7.6-9.1-8.6c-1.2-0.3-1.6-0.5-1.2-1.9c0.6-2.1,0.8-4.4,0.7-6.8c0.1-1.7-0.1-3.6-0.5-5.5
		c-3.1-16.3-17.8-27-34.3-25.1C11.2,8.1-1.2,25.1,2.1,42.3C6.2,63.9,30.2,74.5,49,62.9c1.1-0.6,1.5-0.7,2.3,0.5
		c4,6.4,12.9,7.6,18.3,2.4C73,62.6,74.3,58.6,73,54z M49.7,59.7c0.3,1.3,0.1,2-1.1,2.7c-18.3,11.4-42.4,0.7-46-20.5
		C-0.4,23.4,13.8,6.5,32.6,6.5c17.5,0,31.4,15,30.1,32.4c-0.1,0.7-0.2,1.5-0.3,2.2c-0.4,3.4-0.4,3.4-3.7,4.2
		C52.3,46.8,48.2,53.2,49.7,59.7z M61.3,68c-5.9,0-10.9-5-10.9-11c0-6.1,5-11,11-11c6,0,10.9,5,11,10.9C72.4,63.1,67.4,68.1,61.3,68
		z"/>
	<path class="st1" d="M49.3,34.9c0-3.6,0-6.1,0-8.6c0-1.8-0.8-2.6-2.2-2.6c-1.4,0-2.5,0.9-2.4,2.5c0.1,7.7-0.8,15.6,1.6,23.1
		c0.1,0.5,0,1.2,0.7,1.2c0.7,0,0.5-0.7,0.7-1.2C49.1,44.2,49.8,39.1,49.3,34.9z M47.9,43.7c-0.2,1.1-0.5,2.3-0.8,3.4
		c-0.1,0-0.2,0-0.3-0.1c-0.2-1.1-0.5-2.2-0.7-3.3c-0.1-0.4-0.4-0.9,0.1-1c0.4-0.2,1-0.2,1.5,0C48.2,42.8,48,43.3,47.9,43.7z
		 M47,41.4c-1.1,0-1.3-0.5-1.3-1.5c0-3.1,0-6.3,0-9.4c0-1,0.2-1.6,1.4-1.6c1.4,0,1.3,0.7,1.3,1.6c0,1.5,0,3.1,0,4.6
		c0,1.6-0.1,3.2,0,4.8C48.4,41,48,41.3,47,41.4z M46.9,27.9c-1.1,0.1-1.2-0.5-1.2-1.4c0-1,0.2-1.8,1.4-1.7c1.2,0,1.3,0.9,1.2,1.9
		C48.5,27.9,47.7,27.8,46.9,27.9z"/>
	<path class="st2" d="M62.9,56.8c-0.2-0.1,0-0.6,0-1c0-0.8,0-1.6,0-2.4c0-0.4,0-0.8-0.6-0.8c-0.4,0-0.6,0.4-0.7,0.6
		c-0.8,1.2-1.7,2.3-2.4,3.5c-0.8,1.3-0.6,1.7,0.9,1.7c0.8,0,2-0.3,1.8,1.2c0,0.3,0.2,0.5,0.5,0.5c0.3,0,0.5-0.2,0.5-0.5
		C62.9,58.7,64.6,57.8,62.9,56.8z M59.9,57.3c0.6-0.9,1.1-1.6,1.6-2.3C62.1,57.2,61.9,57.4,59.9,57.3z"/>
	<g>
		<path class="st3" d="M37.7,44.6c-4.1,0-8.2,0-12.4,0c-0.7,0-1.5,0-1.5,1c0,1.1,0.8,1.1,1.6,1.1c2.1,0,4.1,0,6.2,0c2,0,4,0,6,0
			c0.8,0,1.6-0.1,1.6-1.1C39.2,44.7,38.5,44.6,37.7,44.6z"/>
		<path class="st3" d="M37.7,32.6c-4.1,0-8.1,0-12.2,0c-0.7,0-1.6-0.2-1.6,1c0,1.1,0.9,1.1,1.6,1.1c2.1,0,4.1,0,6.2,0c2,0,4,0,6,0
			c0.8,0,1.6-0.1,1.6-1.1C39.2,32.6,38.4,32.6,37.7,32.6z"/>
		<path class="st3" d="M25.3,28.5c4.1,0,8.2,0,12.3,0c0.7,0,1.5-0.1,1.6-0.9c0.1-1-0.7-1.1-1.6-1.1c-2.1,0-4.1,0-6.2,0
			c-2.1,0-4.1,0-6.2,0c-0.7,0-1.4,0.1-1.4,1C23.9,28.4,24.6,28.5,25.3,28.5z"/>
		<path class="st3" d="M43.2,24.3c0-2.2-0.7-3-2.8-3c-6,0-11.9,0-17.9,0c-2,0-2.8,0.8-2.8,2.9c0,8.7,0,17.4,0,26.1
			c0,2.1,0.8,2.9,2.9,2.9c5.8,0,11.7,0,17.5,0c2.3,0,3-0.8,3-3.1c0-4.2,0-8.5,0-12.7C43.2,33,43.3,28.6,43.2,24.3z M41.2,37.3
			c0,4.1,0,8.1,0,12.2c0,1.2-0.2,1.7-1.6,1.7c-5.4-0.1-10.9-0.1-16.3,0c-1.2,0-1.6-0.4-1.6-1.6c0-8.2,0-16.5,0-24.7
			c0-1.2,0.4-1.5,1.6-1.5c5.4,0.1,10.9,0.1,16.3,0c1.2,0,1.6,0.4,1.6,1.6C41.2,29,41.2,33.2,41.2,37.3z"/>
		<path class="st3" d="M37.9,38.5c-4.2,0-8.5,0-12.7,0c-0.8,0-1.4,0.3-1.3,1.2c0.1,0.9,0.7,0.9,1.4,0.9c2.1,0,4.1,0,6.2,0
			c2.1,0,4.2,0,6.4,0c0.8,0,1.5-0.1,1.4-1C39.2,38.8,38.6,38.5,37.9,38.5z"/>
	</g>
</g>
</svg>
