<?xml version="1.0" encoding="utf-8"?>
<!-- Generator: Adobe Illustrator 23.0.1, SVG Export Plug-In . SVG Version: 6.00 Build 0)  -->
<svg version="1.1" id="Layer_1" xmlns="http://www.w3.org/2000/svg" xmlns:xlink="http://www.w3.org/1999/xlink" x="0px" y="0px"
	 viewBox="0 0 48 48" style="enable-background:new 0 0 48 48;" xml:space="preserve">
<style type="text/css">
	.st0{fill:#60C4B1;}
	.st1{fill:#FFFFFF;}
</style>
<g>
	<path class="st0" d="M46.2,0H1.7c-1,0-1.8,0.8-1.8,1.8v44.5c0,1,0.8,1.8,1.8,1.8h44.5c1,0,1.8-0.8,1.8-1.8V1.8
		C47.9,0.8,47.1,0,46.2,0z"/>
	<path class="st1" d="M40.8,18.3c0-0.7-0.7-1.3-1.7-1.3c-0.9,0-1.7,0.6-1.7,1.3c0,0.2,0.1,0.4,0.2,0.6l0,0l-0.3,0.8c0,0,0,0,0,0
		l-0.1-0.2c-0.9-2.6-2.6-6.9-3.6-7.7h0c0,0-1.4-1.3-4-1.3h-4.4c0,0-1.1,0-2.4,0h-4.4c-2.5,0-4,1.3-4,1.3h0c-1,0.8-2.7,5.1-3.6,7.7
		l0,0.1l-0.3-0.8l0,0c0.1-0.2,0.2-0.4,0.2-0.6c0-0.7-0.7-1.3-1.7-1.3c-0.9,0-1.7,0.6-1.7,1.3c0,0.7,0.7,1.3,1.7,1.3
		c0.3,0,0.5-0.1,0.7-0.1l0,0l0.1,1l0,0c-0.5,0.5-1.2,1.3-1.6,2.3c-0.6,1.3-0.9,3.4-0.3,6.5v7.3c0,0.5,0.4,0.9,0.9,0.9H11
		c0.5,0,0.9-0.4,0.9-0.9v-0.8l0,0H36l0,0v0.8c0,0.5,0.4,0.9,0.9,0.9h2.3c0.5,0,0.9-0.4,0.9-0.9v-7.3c0.6-3.1,0.3-5.2-0.2-6.5
		c-0.4-1-1.1-1.8-1.6-2.3l0.1,0.1l0.1-1l0,0c0.2,0.1,0.5,0.2,0.7,0.2C40,19.7,40.8,19.1,40.8,18.3z M14.7,12.5h18.4
		c0.5,0.4,1.9,3.7,3.1,6.8C34,19,27.2,18.9,24,18.9l0,0c-3.2,0-10,0.1-12.3,0.4C12.8,16.1,14.3,12.8,14.7,12.5z M11.3,32.9
		c-0.7,0-1.2-0.5-1.2-1.2c0-0.7,0.5-1.2,1.2-1.2c0.7,0,1.2,0.5,1.2,1.2C12.5,32.4,12,32.9,11.3,32.9z M13.4,24.3
		c-0.1,1.3-1.1,2.3-2.3,2.2c-1.1-0.1-1.9-1.2-1.8-2.5c0.1-1.3,1.1-2.3,2.3-2.2C12.7,21.9,13.5,23,13.4,24.3z M32.1,28.3H15.8
		c0,0-3.4,0.1-1.4-2c0,0,1.5-2,4.4-2h5.1c0,0,0,0,0,0h5.1c2.9,0,4.4,2,4.4,2C35.5,28.5,32.1,28.3,32.1,28.3z M36.6,32.9
		c-0.7,0-1.2-0.5-1.2-1.2c0-0.7,0.5-1.2,1.2-1.2c0.7,0,1.2,0.5,1.2,1.2C37.8,32.4,37.3,32.9,36.6,32.9z M38.8,23.9
		c0.1,1.3-0.7,2.4-1.8,2.5c-1.1,0.1-2.1-0.9-2.3-2.2c-0.1-1.3,0.7-2.4,1.8-2.5C37.6,21.7,38.7,22.6,38.8,23.9z"/>
</g>
</svg>
