<?xml version="1.0" encoding="utf-8"?>
<!-- Generator: Adobe Illustrator 21.0.0, SVG Export Plug-In . SVG Version: 6.00 Build 0)  -->
<svg version="1.1" id="Layer_1" xmlns="http://www.w3.org/2000/svg" xmlns:xlink="http://www.w3.org/1999/xlink" x="0px" y="0px"
	 viewBox="0 0 75 75" style="enable-background:new 0 0 75 75;" xml:space="preserve">
<style type="text/css">
	.st0{fill:#3374BA;}
</style>
<g>
	<path class="st0" d="M74,29c0-1.1-0.8-1.7-2.5-2l-1.8-0.2l-26,26l-4.9,4.9c-0.5,0.5-1.1,0.8-1.8,0.9c-0.6,0.2-1.3,0.4-2,0.4
		c-1.4,0-2.6-0.5-3.6-1.5L13.6,39.6c-1-1-1.5-2.2-1.5-3.6c0-1.4,0.5-2.6,1.5-3.6l4.9-4.9c1.9-1.9,5.2-1.9,7.2,0l9.4,9.4l13.8-13.9
		L39.3,4.3c-0.6-1.2-1.3-1.8-2.2-1.8c-0.9,0-1.6,0.6-2.1,1.8l-9.6,20.1L3.4,28C1.8,28.3,1,28.9,1,30c0,0.6,0.4,1.3,1.1,2.1
		l16.2,15.3l-3.5,22c-0.1,0.4-0.1,0.7-0.1,0.9c0,0.6,0.2,1.1,0.5,1.5c0.3,0.4,0.8,0.6,1.4,0.6c0.5,0,1.1-0.2,1.7-0.6l19.6-10.6
		l19.8,10.1c0.6,0.3,1.2,0.5,1.8,0.5c0.6,0,1-0.2,1.3-0.7c0.3-0.4,0.4-0.9,0.4-1.6c0-0.4,0-0.7-0.1-0.9l-4.1-21.9l15.7-15.7
		C73.6,30.4,74,29.7,74,29z"/>
	<path class="st0" d="M36.4,55.2l30.9-30.9c0.4-0.4,0.5-0.8,0.5-1.3c0-0.5-0.2-0.9-0.5-1.3l-4.9-4.9c-0.7-0.7-1.9-0.7-2.6,0
		L35.1,41.5L23.4,29.8c-0.4-0.4-0.8-0.5-1.3-0.5c-0.5,0-0.9,0.2-1.3,0.5l-4.9,4.9c-0.4,0.4-0.5,0.8-0.5,1.3c0,0.5,0.2,0.9,0.5,1.3
		l17.9,17.9C34.5,55.9,35.6,55.9,36.4,55.2z"/>
</g>
</svg>
