<?xml version="1.0" encoding="utf-8"?>
<!-- Generator: Adobe Illustrator 21.0.0, SVG Export Plug-In . SVG Version: 6.00 Build 0)  -->
<svg version="1.1" id="Layer_1" xmlns="http://www.w3.org/2000/svg" xmlns:xlink="http://www.w3.org/1999/xlink" x="0px" y="0px"
	 viewBox="0 0 75 75" style="enable-background:new 0 0 75 75;" xml:space="preserve">
<style type="text/css">
	.st0{fill:#62C3B3;}
	.st1{fill:#61C2B2;}
	.st2{fill:#5CC1B0;}
	.st3{fill:#5EC1B1;}
	.st4{fill:#66C4B4;}
	.st5{fill:#5EC1B0;}
	.st6{fill:#62C3B2;}
</style>
<g>
	<path class="st0" d="M63.7,44c-1-0.2-1.7-0.3-1.3-1.7c0.4-1.7,0.6-3.5,0.5-5.4c0.2-1.8-0.1-3.6-0.4-5.5
		C59.5,14.8,43.5,3.6,26.9,6.5C10.8,9.3-0.4,24.5,1.8,40.8C4.6,62.7,29,74.6,47.9,63.2c1.4-0.8,2-0.8,2.9,0.6
		c3,4.3,8.7,6.1,13.8,4.6c5.3-1.7,8.9-6.4,9-11.8C73.6,50.5,69.7,45.5,63.7,44z M48.1,62.3c-18.6,11.6-42.9,0-45.7-21.8
		C0.2,22.6,14.1,6.8,32.2,6.8c17.4,0,31.2,14.9,29.9,32.2c0,0.1,0,0.1,0,0.2C62,40.4,62,41.8,61.5,43c-0.6,1.4-2.3,0.7-3.5,1
		c-7.2,1.8-11.4,9.1-9.1,16.2C49.3,61.3,49,61.8,48.1,62.3z M60.9,67.9c-6.3,0-11.6-5.2-11.6-11.6c0-6.4,5.2-11.6,11.6-11.6
		c6.4,0,11.6,5.2,11.6,11.6C72.5,62.6,67.3,67.9,60.9,67.9z"/>
	<path class="st1" d="M61,60.5c-1,0-1.9-0.4-2.4-1.6c-0.1-0.4-0.4-0.9,0.2-1.2c0.4-0.2,0.8,0,1,0.5c0.1,0.2,0.2,0.4,0.3,0.6
		c0.4,0.5,0.9,0.7,1.5,0.5c0.6-0.2,1-0.6,1-1.2c0-0.7-0.4-1-1-1.2c-0.4-0.2-1,0.1-1-0.6c0-0.7,0.6-0.5,1-0.6
		c0.5-0.2,0.7-0.6,0.7-1.1c0-0.5-0.3-0.7-0.7-0.9c-0.6-0.2-1.1,0-1.5,0.6c-0.3,0.5-0.4,1.5-1.2,0.9c-0.8-0.5-0.1-1.3,0.3-1.8
		c0.9-1.2,2.1-1.3,3.4-0.6c1.2,0.6,1.4,1.6,0.9,2.7c-0.2,0.5-0.2,0.7,0.1,1.2C64.7,58.6,63.5,60.5,61,60.5z"/>
	<path class="st2" d="M48.5,23.4c0-1.3-0.5-1.7-1.7-1.7c-2.2,0.1-4.4,0-6.7,0c-2.2,0-4.4,0-6.7,0c-0.8,0-1.4,0.2-2,0.8
		C25.8,28.4,20,34.2,14.2,39.9c-0.9,0.9-1,1.6,0,2.5c4.6,4.5,9.1,9.1,13.6,13.6c0.9,0.9,1.5,0.9,2.4,0c5.8-5.9,11.6-11.7,17.5-17.5
		c0.6-0.6,0.9-1.2,0.9-2.1C48.5,32.2,48.5,27.8,48.5,23.4z M46.5,25.1c-0.1,1.8,0,3.6,0,6.3c-0.2,4.5-1.2,6.9-4.4,10
		c-4,4-8.1,8-12.1,12c-0.8,0.9-1.3,0.8-2.2,0c-3.7-3.8-7.4-7.5-11.2-11.2c-0.8-0.8-0.8-1.2,0-2C22,35,27.2,29.7,32.5,24.5
		c0.6-0.6,1.2-0.9,2.1-0.9c3.5,0,6.9,0.1,10.4,0C46.1,23.6,46.6,23.9,46.5,25.1z"/>
	<path class="st3" d="M26.8,46c1,0.1,1.6-0.6,2.1-1.3c0.3-0.4,0.3-0.9-0.1-1.3c-0.4-0.5-0.9-0.6-1.4-0.2c-0.6,0.3-1.1,0.7-1.7,1.1
		c-0.8,0.5-1.6,0.6-2.3-0.2c-0.6-0.7-0.6-1.6-0.1-2.4c0.6-1,1.5-1.7,2.8-1.5c0.3,0.1,0.7,0.2,0.7,0.6c-0.1,0.5-0.4,0.4-0.8,0.3
		c-0.9-0.4-1.4,0.2-1.9,0.8c-0.4,0.4-0.5,0.9-0.1,1.4c0.4,0.5,0.9,0.4,1.4,0.2c0.7-0.4,1.3-0.9,2.1-1.2c1.1-0.5,2.2,0.1,2.4,1.3
		c0.3,1.5-1.6,3.5-3.1,3.4c-0.5-0.1-1.2-0.2-1.1-0.8C25.7,45.5,26.3,45.9,26.8,46z"/>
	<path class="st4" d="M30.7,34.4c0.2,0.1,0.4,0.3,0.6,0.4c1.2,1.2,2.5,2.4,3.7,3.6c0.2,0.2,0.5,0.4,0.2,0.7
		c-0.2,0.3-0.5,0.1-0.7-0.1c-1.3-1.2-2.6-2.5-3.9-3.8c-0.1-0.1-0.2-0.4-0.2-0.6C30.3,34.6,30.5,34.5,30.7,34.4z"/>
	<path class="st5" d="M41.7,25.6c-1.7,0-3,1.3-3,3c0,1.7,1.3,2.8,2.9,2.8c1.7,0,2.9-1.2,2.9-2.9C44.5,26.9,43.3,25.6,41.7,25.6z
		 M41.6,29.4c-0.5,0-0.9-0.2-0.9-0.8c0-0.6,0.3-0.9,0.9-0.9c0.5,0,0.8,0.4,0.8,0.9C42.5,29.1,42.2,29.4,41.6,29.4z"/>
	<path class="st0" d="M38.1,34c-0.6,0.7-0.2,1.5-0.7,2c-0.6,0.5-1.2,0.9-1.8,0.3c-0.6-0.6,0.3-0.8,0.5-1.2c0.2-0.3,0.5-0.6,0.8-0.9
		c0.9-0.8,0.5-1.2-0.3-1.6c-1.1-0.5-2-0.3-2.7,0.7c-0.7,1.1-0.5,2.2,0.4,3.1c0.9,0.9,1.9,1.2,3.1,0.5C38.4,36.3,38.8,35.4,38.1,34z
		 M34.2,34.6c0-0.8,0.4-1.3,1.2-1.4c0.4-0.1,0.9,0.1,0.8,0.6c-0.2,0.7-0.9,1.1-1.4,1.6C34.3,35.2,34.2,34.9,34.2,34.6z"/>
	<path class="st6" d="M31.7,38.1c-0.6-0.6-1.2-0.9-2-0.3c-0.8,0.6-1.5,1.3-1.3,2.4c0.1,0.3,0.2,0.6,0.6,0.5c0.2-0.1,0.4-0.3,0.3-0.5
		c-0.3-0.9,0.3-1.4,0.9-1.7c0.2-0.1,0.5-0.1,0.6,0.1c0.5,0.8-0.3,1.2-0.6,1.8c-0.4,0.9-0.8,1.7,0.3,2.4c1.1,0.6,1.9-0.1,2.2-0.9
		c0.3-0.8,1-1,1.7-1.6C33.1,39.8,32.4,38.8,31.7,38.1z M32.5,40.6c0,0.7-0.5,1.2-1.2,1.4c-0.5-0.1-0.8-0.4-0.7-0.8
		c0.2-0.7,0.5-1.4,1.2-1.5C32.3,39.5,32.5,40.1,32.5,40.6z"/>
</g>
</svg>
