<?xml version="1.0" encoding="utf-8"?>
<!-- Generator: Adobe Illustrator 21.0.0, SVG Export Plug-In . SVG Version: 6.00 Build 0)  -->
<svg version="1.1" id="Layer_1" xmlns="http://www.w3.org/2000/svg" xmlns:xlink="http://www.w3.org/1999/xlink" x="0px" y="0px"
	 viewBox="0 0 135.9 105.3" style="enable-background:new 0 0 135.9 105.3;" xml:space="preserve">
<style type="text/css">
	.st0{fill:#5FC1B0;}
</style>
<g>
	<path class="st0" d="M54.3,105.3c-16.2,0-32.4,0-48.6,0c-0.8,0-1.6,0-2.3-0.2c-1.4-0.2-2-1-2.1-2.3c-0.8-15,3.8-28.1,13.9-39.3
		c3.2-3.5,6.7-6.5,10.7-8.9c2.4-1.5,2.9-1.5,5,0.3c5.9,5,12.8,7.9,20.5,8.5c9.8,0.7,18.7-2.1,26.3-8.4c2.2-1.8,2.7-1.9,5.1-0.3
		c13.7,9.1,21.8,21.7,24.2,38c0.5,3.4,0.3,6.8,0.3,10.2c0,1.2-0.7,2-1.9,2.3c-0.8,0.2-1.6,0.2-2.3,0.2
		C86.8,105.3,70.6,105.3,54.3,105.3z"/>
	<path class="st0" d="M53.8,55.4c-14.7,0.2-27.3-12.5-27.1-27.6C27,14,37.8,0.9,54,0.9c15.6,0,27.2,12.6,27.2,27.2
		C81.2,43.4,68.7,55.7,53.8,55.4z"/>
	<path class="st0" d="M133.9,26.5c-0.2-1.3-1.2-0.9-2-1c-0.6,0-1.2-0.1-1.8,0c-1.1,0.1-1.6-0.2-2-1.3c-0.6-1.7-1.3-3.4-2.2-5
		c-1.3-2.4-3-4.1-6.2-3.9c-3.3,0.2-6.5,0-9.8,0c-3.6,0-7.2,0-10.7,0c-1.2,0-2.2,0.4-3.1,1.2c-1.9,1.6-2.9,3.8-3.6,6
		c-0.7,2.5-2.2,3.3-4.6,3c-0.7-0.1-1.7-0.3-1.9,0.8c-0.2,1.1-0.1,2.4,1,2.6c2.8,0.6,1.8,2,1.1,3.5c-0.2,0.4-0.4,0.8-0.4,1.2
		c0,4.9,0,9.8,0,14.7c0,1.3,0.8,2.1,2.2,2c1.6-0.1,3.3,0,4.9,0c2.9,0,3.1-0.2,3.1-3.1c0-0.3,0-0.6,0-0.9c-0.3-1.6,0.4-1.9,1.9-1.9
		c6.1,0.1,12.1,0,18.2,0c3.4,0,3.4,0,3.6,3.4c0.1,1.8,0.8,2.4,2.6,2.4c1.7,0,3.4,0,5.1,0c2.3,0,2.7-0.4,2.7-2.8c0-4,0-8,0-12
		c0-1.2,0.1-2.4-0.5-3.5c-0.8-1.4-1.2-2.6,1.1-3C133.8,28.8,134,27.6,133.9,26.5z M94.7,39.8c-1.5,0-2.9-1.3-3-2.8c0-1.6,1.4-3,3-3
		c1.6,0,2.8,1.3,2.8,2.9C97.5,38.5,96.3,39.8,94.7,39.8z M115.5,39.3c-3.8,0-7.6,0-11.4,0c-0.9,0-1.8-0.3-1.8-1.3
		c0-1.2,0.8-1.5,1.9-1.5c1.9,0,3.7,0,5.6,0c1.9,0,3.9,0,5.8,0c1,0,2,0.2,2,1.3C117.6,39.2,116.4,39.3,115.5,39.3z M94,27.7
		c1.1-2.7,2.1-5.3,3.6-7.6c0.6-1,1.6-1.3,2.8-1.3c6.3,0,12.6,0,18.9,0c1.4,0,2.5,0.5,3.1,1.8c1.1,2.3,2.2,4.6,3.4,7.2
		c-0.9,0-1.4,0-2,0C114,27.7,104.1,27.7,94,27.7z M124.9,39.8c-1.6-0.1-2.7-1.4-2.7-3c0-1.5,1.2-2.8,2.7-2.8c1.6,0,3.1,1.4,3,2.9
		C128,38.5,126.6,39.8,124.9,39.8z"/>
</g>
</svg>
