<?xml version="1.0" encoding="utf-8"?>
<!-- Generator: Adobe Illustrator 21.0.0, SVG Export Plug-In . SVG Version: 6.00 Build 0)  -->
<svg version="1.1" id="Layer_1" xmlns="http://www.w3.org/2000/svg" xmlns:xlink="http://www.w3.org/1999/xlink" x="0px" y="0px"
	 viewBox="0 0 75 75" style="enable-background:new 0 0 75 75;" xml:space="preserve">
<style type="text/css">
	.st0{fill:#63C3B3;}
	.st1{fill:#60C2B1;}
	.st2{fill:#5BC0AF;}
	.st3{fill:#61C3B2;}
	.st4{fill:#62C2B2;}
	.st5{fill:#5EC1B1;}
	.st6{fill:#6DC7B8;}
	.st7{fill:#5BC1AF;}
</style>
<g>
	<path class="st0" d="M66.7,44.7c-1.6-0.8-4.1-0.5-4.7-1.8c-0.6-1.5,0.4-3.6,0.2-5.6c0.2-1.8-0.1-3.6-0.4-5.4
		c-3.1-16.1-17.6-26.6-34-24.7C10.9,9.3-1.3,26.1,2,42.8c4.3,21.8,28.8,31.9,47.1,19.5c1-0.6,1.3-0.5,1.9,0.4
		c3,4.4,8.3,6.3,13.3,4.9c4.7-1.2,8.5-5.6,9-10.5C74,52.1,71.3,47.1,66.7,44.7z M48.8,61.7C30.8,74.4,5.2,63,2.5,41.1
		c-0.1-1.2-0.3-2.5-0.3-3.4c0-17.5,14.5-31.1,31.7-30.1C48,8.5,59.6,19.5,61.4,33.6c0.4,2.8,0.3,5.6-0.1,8.4c-0.1,1-0.5,1.3-1.6,1.5
		c-8,1.1-12.7,8.6-10.2,16.3C49.9,60.7,49.6,61.2,48.8,61.7z M61,67c-6.1,0-11.2-5.2-11.1-11.4c0-6.2,5.2-11.3,11.4-11.2
		c6.1,0,11.2,5.2,11.1,11.4C72.4,62,67.3,67,61,67z"/>
	<path class="st1" d="M59.9,58.9c1.2,0,2.1,0,3,0c0.3,0,0.7,0,0.8,0.5c0,0.6-0.4,0.6-0.8,0.6c-1.1,0-2.2,0-3.4,0
		c-0.9,0-1-0.5-0.8-1.2c0.3-0.9,0.9-1.5,1.7-2c0.5-0.3,1-0.7,1.5-1.1c0.5-0.4,0.7-1,0.5-1.7c-0.2-0.5-0.6-0.7-1.1-0.7
		c-0.6,0-1,0.4-1.2,1c-0.1,0.5-0.3,1.1-1,0.8c-0.8-0.3-0.4-1-0.2-1.4c0.4-1.1,1.2-1.5,2.4-1.5c1.1,0,1.9,0.4,2.3,1.3
		c0.4,1.1,0.2,2.1-0.7,2.9C62.1,57.2,60.8,57.5,59.9,58.9z"/>
	<path class="st2" d="M40.1,22.5c-0.2,0-0.4,0-0.7,0c-0.4,0-0.8-0.1-0.8-0.6c0-1-0.6-1.4-1.5-1.3c-0.4,0-0.7-0.1-0.8-0.6
		c-0.4-2.1-1.8-2.6-3.7-2.4c-0.8,0.1-1.6,0.1-2.4,0c-1.5-0.1-2.4,0.6-2.8,1.9c-0.5,1.5-2.7,1.3-2.9,3c0,0-0.5,0-0.8,0
		c-0.6,0-1.2,0-1.9,0c-2,0-2.7,0.6-2.7,2.7c0,8.7,0,17.4,0,26.1c0,1.9,0.7,2.5,2.6,2.5c6.7,0,13.5,0,20.2,0c1.9,0,2.5-0.6,2.5-2.5
		c0-4.3,0-8.6,0-13c0-3.8,0-7.6,0-11.5C44.5,22.9,44.7,22.3,40.1,22.5z M28.8,19.1c0.3-0.2,0.7-0.5,1-0.5c1.3-0.1,2.7-0.1,4,0
		c0.8,0.1,1.5,0.6,1.4,1.4c-0.1,0.9-1,0.5-1.5,0.5c-0.7,0.1-1.3,0-2,0c-0.8,0-1.6,0-2.4,0c-0.4,0-0.9,0.1-1-0.4
		C28.3,19.7,28.5,19.4,28.8,19.1z M27.2,21.8c1.5,0.1,3,0,4.5,0c1.6,0,3.1,0.1,4.7,0c1.2-0.1,1.2,0.6,1.2,1.5c0,0.9,0,1.5-1.2,1.5
		c-3.1,0-6.2,0-9.2,0c-1.1,0-1.1-0.7-1.1-1.4C26.2,22.6,26,21.7,27.2,21.8z M41.8,52.7c-6.6,0-13.2,0-19.7,0c-1.3,0-1.9-0.4-1.9-1.8
		c0-8.5,0-17,0-25.5c0-1.3,0.5-1.8,1.8-1.7c0.6,0.1,1.2,0,1.9,0c0.8,0,1.5,0.1,1.4,1.2c-0.1,0.7,0.4,0.9,1.1,0.9c3.8,0,7.5,0,11.3,0
		c0.7,0,1.2-0.2,1.1-0.9c-0.1-1.2,0.7-1.2,1.5-1.2c3.9,0,3.3-0.4,3.4,3.3c0,3.7,0,7.4,0,11.1c0,4.3,0,8.5,0,12.8
		C43.5,52.2,43.2,52.7,41.8,52.7z"/>
	<path class="st3" d="M35,41.3c1.8,0,3.6,0,5.4,0c0.5,0,1.1,0.1,1.2,0.7c0.1,0.7-0.5,1-1.1,1c-3.7,0-7.4,0-11.1,0
		c-0.6,0-1-0.3-1-0.9c0-0.6,0.6-0.8,1.1-0.8C31.3,41.3,33.1,41.3,35,41.3z"/>
	<path class="st4" d="M35,28.5c1.8,0,3.6,0,5.4,0c0.5,0,1.1,0.1,1.1,0.7c0,0.7-0.5,1-1.1,1c-3.6,0-7.3,0-10.9,0
		c-0.6,0-1.2-0.3-1.2-0.9c0-0.7,0.7-0.7,1.3-0.7C31.5,28.5,33.2,28.5,35,28.5z"/>
	<path class="st0" d="M34.9,36.5c-1.7,0-3.4,0-5,0c-0.7,0-1.5,0-1.5-0.9c0-0.9,0.8-0.8,1.4-0.8c3.5,0,7,0,10.4,0
		c0.6,0,1.4,0,1.4,0.8c0,0.8-0.8,0.8-1.4,0.8C38.4,36.5,36.7,36.5,34.9,36.5z"/>
	<path class="st0" d="M34.8,49.4c-1.7,0-3.5,0-5.2,0c-0.6,0-1.4-0.1-1.3-0.9c0.1-0.7,0.7-0.7,1.3-0.7c3.5,0,7,0,10.6,0
		c0.6,0,1.3,0.1,1.3,0.7c0.1,0.8-0.7,0.9-1.3,0.9C38.4,49.4,36.6,49.4,34.8,49.4z"/>
	<path class="st5" d="M25.5,42.3c0.4,1.8-0.9,1.4-1.8,1.5C22.1,44,22.3,43,22.2,42c-0.2-1.7,0.9-1.4,1.9-1.5
		C25.5,40.4,25.7,41.2,25.5,42.3z"/>
	<path class="st6" d="M25.5,48.6c0.3,1.5-0.5,1.6-1.7,1.6c-1.2,0-1.7-0.2-1.7-1.6c0-1.3,0.3-1.8,1.7-1.7C25,47,25.8,47.1,25.5,48.6z
		"/>
	<path class="st2" d="M23.8,27.6c-1.4-0.4-1.6,0.3-1.6,1.6c0,1.2,0.2,1.8,1.7,1.8c1.4,0,1.8-0.3,1.8-1.8
		C25.6,27.8,25.2,27.3,23.8,27.6z"/>
	<path class="st7" d="M25.6,35.7c-0.1-1.1-0.1-2.1-1.6-1.7c-1.2-0.2-2,0-1.9,1.5c0.1,1.3,0.1,2,1.7,1.9C25,37.3,25.7,37.2,25.6,35.7
		z"/>
</g>
</svg>
