<svg width="2019" height="1585" viewBox="0 0 2019 1585" xmlns="http://www.w3.org/2000/svg"><title>Vector</title><g fill="none" fill-rule="evenodd"><rect fill="#231F20" width="2019" height="1585" rx="60"/><path d="M1594.199 1157.056c-.662-18.808 14.912-33.793 34.795-33.498 0 0 94.366 1.728 111.193.183 16.827-1.544 21.813-19.844 21.813-19.844v107.152s-1.967-9.251-7.412-15.623c-4.055-4.746-11.286-7.001-14.401-7.426-15.893-2.168-39.976-.077-60.695 0-27.706.103-50.491.04-50.491.04-19.883-.022-35.377-16.146-34.802-30.984zM1538 964.001c0-16.57 13.424-30.001 30.006-30.001H1762v63h-193.994c-16.572 0-30.006-13.438-30.006-30v-3zM1762 934s15.466.25 23.984 3.106c2.703.906 10.568 4.7 10.568 4.7 16.264 7.54 29.448 28.188 29.448 46.117v119.361c0 9.04-3.338 18.155-4.746 23.513-4.754 18.1-12.733 16.667-12.733 25.203 0 2.81 3.271 5.843 5.03 9.187 2.183 4.15 6.235 12.882 8.585 20.379 2.232 7.124 2.814 13.09 3.02 14.592.774 5.646.738 9.363.844 14.222 1.58 72.194.838 100.012 0 108.415-.225 2.258-.353 2.477-.353 2.477-2.84 17.701-18.236 38.372-34.472 45.986 0 0-3.841 2.285-11.06 4.708C1772.897 1378.39 1762 1378 1762 1378V934zm-224 410.009c0-16.574 13.424-30.009 30.006-30.009H1762v64h-193.994c-16.572 0-30.006-13.436-30.006-30.009v-3.982z" fill="#FFF"/><path d="M930 1188h66v190h-59c-3.866 0-7-3.14-7-7.002V1188zm66 126h193.994c16.572 0 30.006 13.436 30.006 30.009v3.982c0 16.574-13.424 30.009-30.006 30.009H996v-64zm-62.208-147.4c1.869-4.481 8.239-15.324 8.239-15.324 8.826-15.617 30.526-28.276 48.482-28.276H1155v65H930s.796-14.216 3.792-21.4zM930 964c0-16.568 13.422-30 29.995-30H1155v63H959.995C943.429 997 930 983.562 930 967v-3zm225-30s11.888.137 21.2 2.325c9.313 2.188 16.004 7.589 16.004 7.589 15.351 9.296 27.796 31.385 27.796 49.324v135.68c0 17.944-12.413 40.096-27.943 49.079 0 0 .365.782-11.697 5.902s-25.36 4.128-25.36 4.128V934z" fill="#8FC957"/><path d="M501 934h-89.002C395.98 934 383 946.983 383 963v5c0 16.023 12.983 29 28.998 29H495v374.997a6.003 6.003 0 0 0 5.999 6.003H554a6.003 6.003 0 0 0 5.999-6.003V940.003A6.003 6.003 0 0 0 554 934h-53z" fill="#229ACC"/><path fill="#FFF" d="M190 194h124v972H190zm458 0h122v975H648zm204 0h124v626H852zm660 0h121v628h-121zm203 0h121v628h-121zm-408-2h123v979h-123z"/></g></svg>