<svg xmlns="http://www.w3.org/2000/svg" viewBox="0 0 24 24" height="24" width="24"><path d="M7.886 1.021C9.264 2.356 10.626 3.708 12 5.047l.001.069c-.306 2.006-.544 4.024-.848 6.031-1.346-1.36-2.717-2.697-4.061-4.06.281-2.02.525-4.045.794-6.066z" fill="#88878a"/><path d="M12 5.047c1.351-1.35 2.703-2.701 4.064-4.04.277 2.03.55 4.06.832 6.09-1.368 1.321-2.69 2.69-4.025 4.046l-.012.013c-.284-2.013-.59-4.024-.858-6.04L12 5.047zM1.006 7.977c2.03-.282 4.055-.606 6.086-.89 1.344 1.363 2.715 2.7 4.061 4.06-2.015.28-4.03.563-6.043.851h-.05c-1.35-1.341-2.714-2.67-4.054-4.02z" fill="#a6040e"/><path d="M16.896 7.097c.218-.024.437.02.654.046 1.814.271 3.634.51 5.45.778-1.339 1.345-2.688 2.68-4.017 4.033-2.04-.244-4.076-.529-6.112-.811 1.335-1.357 2.657-2.725 4.025-4.046zM5.06 11.998h.05c2.019.288 4.04.56 6.058.858-1.355 1.353-2.716 2.699-4.068 4.055-2.034-.296-4.068-.591-6.1-.906 1.354-1.335 2.704-2.673 4.06-4.007z" fill="#88878a"/><path d="M12.857 12.845c2.037-.264 4.07-.55 6.108-.811 1.343 1.347 2.687 2.697 4.035 4.042-2.034.28-4.066.58-6.102.854-1.339-1.37-2.691-2.726-4.041-4.085zM11.168 12.856c.243 1.841.495 3.682.754 5.523.023.198.066.404.006.602-1.317 1.359-2.693 2.666-4.042 3.994-.26-2.022-.518-4.043-.786-6.064 1.352-1.356 2.713-2.702 4.068-4.055z" fill="#a6040e"/><path d="M12.018 18.868c.22-2.013.568-4.014.839-6.023 1.35 1.359 2.702 2.715 4.041 4.085-.29 2.02-.554 4.042-.832 6.063-1.215-1.178-2.394-2.393-3.61-3.573-.157-.172-.39-.304-.438-.552z" fill="#88878a"/></svg>