<?xml version="1.0" encoding="UTF-8"?>
<svg width="22px" height="21px" viewBox="0 0 22 21" version="1.1" xmlns="http://www.w3.org/2000/svg" xmlns:xlink="http://www.w3.org/1999/xlink">
    <!-- Generator: Sketch 42 (36781) - http://www.bohemiancoding.com/sketch -->
    <title></title>
    <desc>Created with Sketch.</desc>
    <defs></defs>
    <g id="Page-1" stroke="none" stroke-width="1" fill="none" fill-rule="evenodd" opacity="0.600000024">
        <g id="Payment" transform="translate(-307.000000, -325.000000)" fill="#2E2E2E">
            <path d="M317.785727,325.857122 L307.071429,330.142842 L307.071429,331.571415 L308.500002,331.571415 C308.500002,331.96204 308.845984,332.285702 309.270092,332.285702 L326.301362,332.285702 C326.72547,332.285702 327.071452,331.96204 327.071452,331.571415 L328.500026,331.571415 L328.500026,330.142842 L317.785727,325.857122 Z M309.928575,332.999988 L309.928575,341.571427 L309.270092,341.571427 C308.845984,341.571427 308.500002,341.895088 308.500002,342.285713 L308.500002,343 L327.071452,343 L327.071452,342.285713 C327.071452,341.895088 326.72547,341.571427 326.301362,341.571427 L325.642879,341.571427 L325.642879,332.999988 L322.785733,332.999988 L322.785733,341.571427 L321.35716,341.571427 L321.35716,332.999988 L318.500014,332.999988 L318.500014,341.571427 L317.07144,341.571427 L317.07144,332.999988 L314.214294,332.999988 L314.214294,341.571427 L312.785721,341.571427 L312.785721,332.999988 L309.928575,332.999988 Z M327.729935,343.714287 L307.841519,343.714287 C307.417411,343.714287 307.071429,344.037948 307.071429,344.428573 L307.071429,345.857146 L328.500026,345.857146 L328.500026,344.428573 C328.500026,344.037948 328.154043,343.714287 327.729935,343.714287 Z" id=""></path>
        </g>
    </g>
</svg>