<svg xmlns="http://www.w3.org/2000/svg" width="44" height="44" viewBox="0 0 44 53.777778"><title>Group 11</title><path d="M36.986 26.798c.122 1.298-.707 2.434-1.852 2.54-1.145.105-2.171-.861-2.293-2.16-.123-1.296.707-2.432 1.852-2.538 1.144-.105 2.171.861 2.293 2.158m-2.168 9.064c-.67 0-1.213-.537-1.213-1.2 0-.661.543-1.198 1.213-1.198s1.213.537 1.213 1.199-.544 1.2-1.213 1.2m-4.626-4.636H13.686s-3.435.144-1.446-2.04c0 0 1.522-2.019 4.5-2.019h10.398c2.979 0 4.5 2.018 4.5 2.018 1.99 2.185-1.446 2.041-1.446 2.041M11.215 27.18c-.122 1.298-1.15 2.264-2.294 2.158-1.144-.105-1.974-1.241-1.852-2.539.121-1.297 1.148-2.263 2.293-2.158 1.145.106 1.975 1.242 1.853 2.539m-2.073 8.623c-.67 0-1.213-.537-1.213-1.2 0-.661.543-1.198 1.213-1.198s1.212.537 1.212 1.199-.542 1.2-1.212 1.2m3.473-20.496h18.71c.52.374 1.97 3.676 3.134 6.794-2.42-.258-9.936-.34-12.456-.362-2.527.021-10.083.105-12.51.363 1.175-3.144 2.637-6.473 3.122-6.795M39 21.216c0-.74-.753-1.339-1.682-1.339-.928 0-1.681.6-1.681 1.339 0 .206.063.399.167.573l-.011-.01-.348.844-.025-.015-.064-.175c-.961-2.636-2.653-6.961-3.657-7.725h.038s-1.425-1.32-4.009-1.32H16.233c-2.584 0-4.009 1.32-4.009 1.32h.03c-1.004.764-2.696 5.089-3.658 7.725l-.043.125-.346-.838-.012.01a1.11 1.11 0 0 0 .168-.574c0-.74-.753-1.34-1.681-1.34-.929 0-1.682.6-1.682 1.34 0 .74.753 1.339 1.682 1.339.274 0 .53-.057.759-.15l-.015.012.147.982.003-.002c-.558.518-1.229 1.297-1.667 2.337-.592 1.286-.897 3.386-.26 6.493v7.359c0 .476.391.863.874.863H8.83a.869.869 0 0 0 .874-.863v-.846l-.013-.02h24.53l-.012.02v.846c0 .476.391.863.873.863h2.31a.868.868 0 0 0 .873-.863V32.21c.648-3.13.344-5.245-.251-6.536-.435-1.033-1.1-1.81-1.655-2.327l.067.052.147-.982-.015-.012c.23.092.485.15.76.15.928 0 1.681-.6 1.681-1.34" fill="#5ec2b1" fill-rule="evenodd"/></svg>