<?xml version="1.0" encoding="UTF-8"?>
<svg width="22px" height="15px" viewBox="0 0 22 15" version="1.1" xmlns="http://www.w3.org/2000/svg" xmlns:xlink="http://www.w3.org/1999/xlink">
    <!-- Generator: Sketch 42 (36781) - http://www.bohemiancoding.com/sketch -->
    <title></title>
    <desc>Created with Sketch.</desc>
    <defs></defs>
    <g id="Page-1" stroke="none" stroke-width="1" fill="none" fill-rule="evenodd" opacity="0.600000024">
        <g id="Payment" transform="translate(-308.000000, -277.000000)" fill="#2E2E2E">
            <path d="M316.857153,287.714281 L321.142872,287.714281 L321.142872,286.642851 L319.714299,286.642851 L319.714299,281.642845 L318.441976,281.642845 L316.790189,283.171864 L317.649565,284.064723 C317.917422,283.830347 318.084833,283.707579 318.263405,283.428561 L318.285726,283.428561 L318.285726,286.642851 L316.857153,286.642851 L316.857153,287.714281 Z M322.571446,284.857134 C322.571446,286.888387 321.343766,289.499997 319.000013,289.499997 C316.65626,289.499997 315.42858,286.888387 315.42858,284.857134 C315.42858,282.825882 316.65626,280.214272 319.000013,280.214272 C321.343766,280.214272 322.571446,282.825882 322.571446,284.857134 Z M328.285738,287.714281 L328.285738,281.999988 C326.712076,281.999988 325.428592,280.716504 325.428592,279.142842 L312.571434,279.142842 C312.571434,280.716504 311.28795,281.999988 309.714287,281.999988 L309.714287,287.714281 C311.28795,287.714281 312.571434,288.997764 312.571434,290.571427 L325.428592,290.571427 C325.428592,288.997764 326.712076,287.714281 328.285738,287.714281 Z M329.714311,278.428555 L329.714311,291.285713 C329.714311,291.676339 329.39065,292 329.000025,292 L309.000001,292 C308.609375,292 308.285714,291.676339 308.285714,291.285713 L308.285714,278.428555 C308.285714,278.03793 308.609375,277.714269 309.000001,277.714269 L329.000025,277.714269 C329.39065,277.714269 329.714311,278.03793 329.714311,278.428555 Z" id=""></path>
        </g>
    </g>
</svg>