<?xml version="1.0" encoding="UTF-8"?>
<svg width="21px" height="17px" viewBox="0 0 21 17" version="1.1" xmlns="http://www.w3.org/2000/svg" xmlns:xlink="http://www.w3.org/1999/xlink">
    <!-- Generator: Sketch 42 (36781) - http://www.bohemiancoding.com/sketch -->
    <title></title>
    <desc>Created with Sketch.</desc>
    <defs></defs>
    <g id="Page-1" stroke="none" stroke-width="1" fill="none" fill-rule="evenodd">
        <g id="Dashboard" transform="translate(-325.000000, -424.000000)" fill="#919191">
            <path d="M343.535735,424.857126 C344.419665,424.857126 345.14288,425.580341 345.14288,426.464271 L345.14288,438.678571 C345.14288,439.562501 344.419665,440.285716 343.535735,440.285716 L327.464288,440.285716 C326.580358,440.285716 325.857143,439.562501 325.857143,438.678571 L325.857143,426.464271 C325.857143,425.580341 326.580358,424.857126 327.464288,424.857126 L343.535735,424.857126 Z M327.464288,426.142842 C327.293528,426.142842 327.142859,426.293512 327.142859,426.464271 L327.142859,428.714273 L343.857164,428.714273 L343.857164,426.464271 C343.857164,426.293512 343.706494,426.142842 343.535735,426.142842 L327.464288,426.142842 Z M343.535735,439 C343.706494,439 343.857164,438.84933 343.857164,438.678571 L343.857164,432.571421 L327.142859,432.571421 L327.142859,438.678571 C327.142859,438.84933 327.293528,439 327.464288,439 L343.535735,439 Z M328.428574,437.714284 L328.428574,436.428568 L331.000006,436.428568 L331.000006,437.714284 L328.428574,437.714284 Z M332.285722,437.714284 L332.285722,436.428568 L336.142869,436.428568 L336.142869,437.714284 L332.285722,437.714284 Z" id=""></path>
        </g>
    </g>
</svg>