<?xml version="1.0" encoding="UTF-8"?>
<svg width="46px" height="34px" viewBox="0 0 46 34" version="1.1" xmlns="http://www.w3.org/2000/svg" xmlns:xlink="http://www.w3.org/1999/xlink">
    <!-- Generator: Sketch 45.1 (43504) - http://www.bohemiancoding.com/sketch -->
    <title>noun_9041_cc</title>
    <desc>Created with Sketch.</desc>
    <defs></defs>
    <g id="Hamburger-Menu" stroke="none" stroke-width="1" fill="none" fill-rule="evenodd">
        <g id="Navigation-Drawer---not-login-Copy" transform="translate(-17.000000, -583.000000)">
            <g id="noun_9041_cc" transform="translate(17.000000, 584.000000)">
                <g id="Group">
                    <g id="Group-7" fill-rule="nonzero" fill="#787878">
                        <path d="M43.6796631,0.293339728 L2.33201623,0.293339728 C1.46515038,0.293339728 0.761922846,1.07455296 0.761922846,2.03755148 L0.761922846,29.9629635 C0.761922846,30.925447 1.46515038,31.7066603 2.33201623,31.7066603 L43.6796631,31.7066603 C44.5465289,31.7066603 45.25022,30.925447 45.25022,29.9624485 L45.25022,2.03755148 C45.25022,1.07455296 44.5465289,0.293339728 43.6796631,0.293339728 Z M43.6652926,29.9459694 L2.3468503,29.9459694 L2.3468503,2.05351562 L43.6652926,2.05351562 L43.6652926,29.9459694 Z" id="Shape" stroke="#787878"></path>
                        <path d="M17.7380952,21.1709602 L6.80952381,21.1709602 C6.4472619,19.5787541 7.37214286,18.7005902 8.87097619,18.3165902 C10.3382381,17.9415831 11.3711905,17.2014614 10.452381,16.1807588 C7.76719048,13.1977892 9.774,9.56687588 12.262881,9.56687588 C14.7517619,9.56687588 16.7804286,13.1973396 14.0952381,16.1807588 C13.1768333,17.2014614 14.1875238,17.9415831 15.654381,18.3165902 C17.153619,18.7005902 18.1007619,19.5787541 17.7380952,21.1709602 Z M20.1666667,19.3723653 L39.1904762,19.3723653 L39.1904762,21.1709602 L20.1666667,21.1709602 L20.1666667,19.3723653 Z M20.1666667,14.8758782 L39.1904762,14.8758782 L39.1904762,16.6744731 L20.1666667,16.6744731 L20.1666667,14.8758782 Z M20.1666667,10.3793911 L39.1904762,10.3793911 L39.1904762,12.1779859 L20.1666667,12.1779859 L20.1666667,10.3793911 Z" id="Combined-Shape"></path>
                    </g>
                    <g id="Group-6" transform="translate(5.857143, 9.142857)"></g>
                </g>
            </g>
        </g>
    </g>
</svg>