<?xml version="1.0" encoding="UTF-8"?>
<svg width="16px" height="21px" viewBox="0 0 16 21" version="1.1" xmlns="http://www.w3.org/2000/svg" xmlns:xlink="http://www.w3.org/1999/xlink">
    <!-- Generator: sketchtool 41 (35326) - http://www.bohemiancoding.com/sketch -->
    <title>E081B649-3151-4194-8931-80E1A450EF8A</title>
    <desc>Created with sketchtool.</desc>
    <defs></defs>
    <g id="Page-1" stroke="none" stroke-width="1" fill="none" fill-rule="evenodd">
        <g id="Suzuki-/-Details" transform="translate(-25.000000, -538.000000)" fill="#699999">
            <g id="Group-12" transform="translate(23.000000, 496.000000)">
                <g id="Group-7" transform="translate(2.000000, 42.000000)">
                    <g id="noun_57856_cc" transform="translate(0.000000, 0.500000)">
                        <g id="Group">
                            <path d="M13.1229734,6.86818703 L14.9269865,6.86818703 C15.4245828,6.86818703 15.8317072,6.46106273 15.8317072,5.96346635 L15.8317072,0.904720679 C15.8317072,0.406898125 15.4245828,0 14.9269865,0 L13.1229734,0 C12.6253771,0 12.2182528,0.407124305 12.2182528,0.904720679 L12.2182528,2.75306502 L9.92795237,2.75306502 C9.6492984,1.98405245 8.91421285,1.43352992 8.04862134,1.43352992 C7.18302983,1.43352992 6.44817046,1.98405245 6.16951649,2.75306502 L3.61345439,2.75306502 L3.61345439,0.904720679 C3.61345439,0.406898125 3.20633008,0 2.70873371,0 L0.904720679,0 C0.407124305,0 -8.8817842e-16,0.407124305 -8.8817842e-16,0.904720679 L-8.8817842e-16,5.96324017 C-8.8817842e-16,6.46083655 0.407124305,6.86796085 0.904720679,6.86796085 L2.70873371,6.86796085 C3.20633008,6.86796085 3.61345439,6.46083655 3.61345439,5.96324017 L3.61345439,4.11466965 L6.16974267,4.11466965 C6.37149538,4.67107286 6.81164199,5.11144565 7.36804521,5.31297218 L7.36804521,14.2923249 C6.41469579,14.5386351 5.66581325,15.2870653 5.41950304,16.2408671 L3.61345439,16.2408671 L3.61345439,14.3925227 C3.61345439,13.8947002 3.20633008,13.4875759 2.70873371,13.4875759 L0.904720679,13.4875759 C0.407124305,13.4875759 -8.8817842e-16,13.8947002 -8.8817842e-16,14.3925227 L-8.8817842e-16,19.4514946 C-8.8817842e-16,19.949091 0.407124305,20.3562153 0.904720679,20.3562153 L2.70873371,20.3562153 C3.20633008,20.3562153 3.61345439,19.949091 3.61345439,19.4514946 L3.61345439,17.6029241 L5.41927686,17.6029241 C5.72190593,18.7743112 6.78269093,19.6412598 8.04884752,19.6412598 C9.31500411,19.6412598 10.3757891,18.7743112 10.6784182,17.6029241 L12.2184789,17.6029241 L12.2184789,19.4514946 C12.2184789,19.949091 12.6256032,20.3562153 13.1231996,20.3562153 L14.9272127,20.3562153 C15.424809,20.3562153 15.8319333,19.949091 15.8319333,19.4514946 L15.8319333,14.3929751 C15.8319333,13.8951525 15.424809,13.4880282 14.9272127,13.4880282 L13.1231996,13.4880282 C12.6256032,13.4880282 12.2184789,13.8951525 12.2184789,14.3929751 L12.2184789,16.2413194 L10.678192,16.2413194 C10.4318818,15.2877438 9.6834516,14.5393137 8.72987601,14.2927773 L8.72987601,5.31342454 C9.28627922,5.11144565 9.72642583,4.67152522 9.92817855,4.11512201 L12.2184789,4.11512201 L12.2184789,5.96369253 C12.2182528,6.46106273 12.6253771,6.86818703 13.1229734,6.86818703 Z M13.2310876,1.01306098 L14.8190985,1.01306098 L14.8190985,5.85535223 L13.2310876,5.85535223 L13.2310876,1.01306098 Z M2.60061959,5.85535223 L1.0128348,5.85535223 L1.0128348,1.01306098 L2.60061959,1.01306098 L2.60061959,5.85535223 Z M2.60061959,19.3433805 L1.0128348,19.3433805 L1.0128348,14.5010892 L2.60061959,14.5010892 L2.60061959,19.3433805 Z M13.2310876,14.5010892 L14.8190985,14.5010892 L14.8190985,19.3433805 L13.2310876,19.3433805 L13.2310876,14.5010892 Z" id="Shape"></path>
                        </g>
                    </g>
                </g>
            </g>
        </g>
    </g>
</svg>