<?xml version="1.0" encoding="UTF-8"?>
<svg width="20px" height="20px" viewBox="0 0 20 20" version="1.1" xmlns="http://www.w3.org/2000/svg" xmlns:xlink="http://www.w3.org/1999/xlink">
    <!-- Generator: sketchtool 41 (35326) - http://www.bohemiancoding.com/sketch -->
    <title>2A0690EF-3464-483D-BB7A-F3C2C6265209</title>
    <desc>Created with sketchtool.</desc>
    <defs></defs>
    <g id="Page-1" stroke="none" stroke-width="1" fill="none" fill-rule="evenodd">
        <g id="Suzuki-/-Details" transform="translate(-210.000000, -539.000000)" fill="#669999">
            <g id="Group-13" transform="translate(210.000000, 492.000000)">
                <g id="Group-10" transform="translate(0.000000, 47.500000)">
                    <g id="Group">
                        <path d="M19.393125,18.8316456 L5.166875,18.8316456 L0.606875,10.5341772 L2.364375,6.49367089 C4.050625,2.66962025 7.803125,0.192405063 11.935625,0.192405063 L19.393125,0.192405063 L19.393125,18.8316456 Z M5.784375,17.7493671 L18.324375,17.7493671 L18.324375,1.29873418 L11.935625,1.29873418 C8.230625,1.29873418 4.858125,3.51139241 3.338125,6.95063291 L1.794375,10.4860759 L5.784375,17.7493671 Z" id="Shape"></path>
                        <path d="M15.949375,3.46329114 L15.949375,8.89873418 L4.620625,8.89873418 L5.309375,7.33544304 C6.378125,4.90632911 8.776875,3.46329114 11.721875,3.46329114 L15.949375,3.46329114 L15.949375,3.46329114 Z M17.018125,2.38101266 L11.721875,2.38101266 C8.515625,2.38101266 5.618125,3.92025316 4.335625,6.87848101 L2.981875,9.95696203 L17.018125,9.95696203 L17.018125,2.38101266 L17.018125,2.38101266 Z" id="Shape"></path>
                        <path d="M14.1025,12.8189873 L12.41625,12.8189873 C12.13125,12.8189873 11.87,12.578481 11.87,12.2658228 C11.87,11.9531646 12.1075,11.7126582 12.41625,11.7126582 L14.1025,11.7126582 C14.3875,11.7126582 14.64875,11.9531646 14.64875,12.2658228 C14.64875,12.578481 14.41125,12.8189873 14.1025,12.8189873 Z" id="Shape"></path>
                    </g>
                </g>
            </g>
        </g>
    </g>
</svg>