<?xml version="1.0" encoding="UTF-8"?>
<svg width="22px" height="17px" viewBox="0 0 22 17" version="1.1" xmlns="http://www.w3.org/2000/svg" xmlns:xlink="http://www.w3.org/1999/xlink">
    <!-- Generator: sketchtool 41 (35326) - http://www.bohemiancoding.com/sketch -->
    <title>91C738E0-164B-4C82-BCE9-D122E79C8B31</title>
    <desc>Created with sketchtool.</desc>
    <defs></defs>
    <g id="Page-1" stroke="none" stroke-width="1" fill="none" fill-rule="evenodd">
        <g id="Search-result-/-Details-view" transform="translate(-24.000000, -421.000000)" fill="#737373">
            <g id="Group-17" transform="translate(23.000000, 381.000000)">
                <g id="Group-2" transform="translate(1.000000, 40.000000)">
                    <g id="noun_568538_cc">
                        <g id="Group">
                            <path d="M20.5085405,5.90950723 C20.0984316,5.90950723 19.7661968,6.24872595 19.7661968,6.66702369 L19.7661968,9.16730334 L18.5405254,9.16730334 L18.5405254,4.6541819 C18.5405254,3.85086011 17.9031425,3.19964658 17.1163596,3.19964658 L13.0385477,3.19964658 L13.0385477,2.06229158 L15.4869278,2.06229158 C15.8970367,2.06229158 16.2292716,1.72307286 16.2292716,1.30477512 C16.2292716,0.886477386 15.8970367,0.547258664 15.4869278,0.547258664 L9.10590334,0.547258664 C8.69537116,0.547258664 8.36355958,0.886477386 8.36355958,1.30477512 C8.36355958,1.72350498 8.69537116,2.06229158 9.10590334,2.06229158 L11.5547066,2.06229158 L11.5547066,3.19921446 L8.60099108,3.19921446 C8.60099108,3.19921446 7.96995656,3.16550865 7.59624531,3.28002198 C7.22253405,3.3945353 6.84712988,3.87721978 6.84712988,3.87721978 L5.05263869,5.76517723 L4.0694776,5.76517723 C3.28227156,5.76517723 2.6448886,6.41682287 2.6448886,7.21971254 L2.6448886,9.16730334 L1.69346969,9.16730334 L1.69346969,6.66702369 C1.69346969,6.24872595 1.36123488,5.90950723 0.951549159,5.90950723 C0.541016976,5.90950723 0.209205398,6.24872595 0.209205398,6.66702369 L0.209205398,13.183048 C0.209205398,13.6009136 0.541016976,13.9409966 0.951549159,13.9409966 C1.36123488,13.9409966 1.69346969,13.6009136 1.69346969,13.183048 L1.69346969,10.6823363 L2.6448886,10.6823363 L2.6448886,12.6614722 C2.6448886,13.4639298 3.28227156,14.1155754 4.0694776,14.1155754 L4.78939022,14.1155754 L6.77348803,15.8086442 C6.77348803,15.8086442 7.17597886,16.1547769 7.67031039,16.3224417 C8.11893319,16.4754142 8.93068651,16.5065273 8.93068651,16.5065273 L14.2595635,16.5065273 C14.2595635,16.5065273 14.5422805,16.5065273 14.7538951,16.4153487 C14.9663561,16.3241702 15.0971338,16.0912544 15.0971338,16.0912544 L16.5949415,14.1155754 L17.1163596,14.1155754 C17.9031425,14.1155754 18.5405254,13.4639298 18.5405254,12.6614722 L18.5405254,10.6823363 L19.7661968,10.6823363 L19.7661968,13.183048 C19.7661968,13.6009136 20.0984316,13.9409966 20.5085405,13.9409966 C20.917803,13.9409966 21.2508843,13.6009136 21.2508843,13.183048 L21.2508843,6.66745582 C21.2508843,6.24915808 20.917803,5.90950723 20.5085405,5.90950723 L20.5085405,5.90950723 Z M9.28746861,14.0922406 L10.5986322,10.1853916 L8.82530248,10.1853916 L11.1344402,5.53917545 L13.8388739,5.53917545 L11.991479,9.4114544 L13.8718857,9.4114544 L9.28746861,14.0922406 Z" id="Shape"></path>
                        </g>
                    </g>
                </g>
            </g>
        </g>
    </g>
</svg>