<?xml version="1.0" encoding="UTF-8"?>
<svg width="19px" height="17px" viewBox="0 0 19 17" version="1.1" xmlns="http://www.w3.org/2000/svg" xmlns:xlink="http://www.w3.org/1999/xlink">
    <!-- Generator: Sketch 41 (35326) - http://www.bohemiancoding.com/sketch -->
    <title>Shape</title>
    <desc>Created with Sketch.</desc>
    <defs></defs>
    <g id="Page-1" stroke="none" stroke-width="1" fill="none" fill-rule="evenodd" fill-opacity="0.5">
        <g id="Dashboard" transform="translate(-328.000000, -112.000000)" fill="#2E2E2E">
            <g id="Group-4" transform="translate(16.000000, 92.000000)">
                <g id="Edit-profile" transform="translate(312.000000, 20.000000)">
                    <g id="edit">
                        <g id="Group">
                            <g id="Shape">
                                <g>
                                    <g>
                                        <path d="M17.1527778,9.90525308 L17.1527778,13.6006545 C17.1527778,15.4764025 15.6171614,17 13.7228826,17 L3.42989514,17 C1.53728996,17 0,15.4780612 0,13.6006545 L0,3.39934547 C0,1.5235975 1.53561636,0 3.42989514,0 L14.0277733,0 L14.0277733,0.000219186084 L14.0081018,1.70000007 L14.0277733,1.70000007 L14.0277733,1.69978081 C14.0212339,1.69992668 14.0146766,1.7 14.0081018,1.70000007 L3.99662753,1.7 C2.73667285,1.7 1.71527778,2.71109952 1.71527778,3.96103004 L1.71527778,13.03897 C1.71527778,14.2877023 2.73546398,15.3 3.99662753,15.3 L13.1561502,15.3 C14.4161049,15.3 15.4375,14.2889005 15.4375,13.03897 L15.4375,9.90525308 C15.4437394,9.44107176 15.8253227,9.06666667 16.2951389,9.06666667 C16.7649551,9.06666667 17.1465384,9.44107176 17.1527021,9.90525308 L17.1527778,9.90525308 Z M18.0020011,2.55834055 C17.5554294,2.11574635 16.8307484,2.11638575 16.3828218,2.56032262 L8.30092464,10.5702354 C7.8532484,11.0139242 7.84923961,11.7293129 8.29892478,12.1749928 C8.74549656,12.617587 9.47017753,12.6169476 9.91810408,12.1730107 L18.0000013,4.16309799 C18.4476775,3.71940913 18.4516863,3.00402044 18.0020011,2.55834055 Z"></path>
                                    </g>
                                </g>
                            </g>
                        </g>
                    </g>
                </g>
            </g>
        </g>
    </g>
</svg>