<?xml version="1.0" encoding="UTF-8"?>
<svg width="21px" height="21px" viewBox="0 0 21 21" version="1.1" xmlns="http://www.w3.org/2000/svg" xmlns:xlink="http://www.w3.org/1999/xlink">
    <!-- Generator: sketchtool 41 (35326) - http://www.bohemiancoding.com/sketch -->
    <title>910BF51B-A4B9-4D1A-9267-772AFAF37B79</title>
    <desc>Created with sketchtool.</desc>
    <defs></defs>
    <g id="Page-1" stroke="none" stroke-width="1" fill="none" fill-rule="evenodd">
        <g id="Search-result-/-Details-view" transform="translate(-210.000000, -419.000000)" fill="#699999">
            <g id="Group-5" transform="translate(208.000000, 381.000000)">
                <g id="noun_57348_cc" transform="translate(2.500000, 38.000000)">
                    <g id="Group">
                        <path d="M8.08811633,2.78765948 L3.71862525,2.78765948 C3.19516193,2.78765948 2.76687376,3.20403879 2.76687376,3.71294684 L2.76687376,6.7143477 C2.76687376,7.22325575 3.19516193,7.63963506 3.71862525,7.63963506 L8.08787839,7.63963506 C8.61134171,7.63963506 9.03962987,7.22325575 9.03962987,6.7143477 L9.03962987,3.71294684 C9.03986781,3.20403879 8.61157964,2.78765948 8.08811633,2.78765948 Z" id="Shape"></path>
                        <path d="M17.1040582,3.63429741 C16.7014673,3.24336351 16.0488037,3.24313218 15.6471646,3.63429741 C15.2445737,4.02523132 15.2450496,4.65928448 15.6471646,5.05068103 L17.043384,6.40830891 C16.1832386,6.66507615 15.5579379,7.44324282 15.5579379,8.36413506 C15.5579379,9.49391092 16.4999339,10.4097141 17.6622604,10.4097141 C18.0244019,10.4097141 18.3656048,10.3206552 18.663265,10.163819 L18.663265,18.0431034 C18.663265,18.9864339 17.8766424,19.7514152 16.9063318,19.7514152 C15.9360212,19.7514152 15.1491606,18.9864339 15.1491606,18.0431034 L15.1486847,18.0431034 L15.1486847,12.6539986 C15.1486847,11.1182529 13.8678652,9.87327874 12.2884336,9.87327874 L11.6774091,9.87327874 L11.6774091,2.78280172 C11.6774091,1.26741236 10.3706543,0.00693965517 8.81216127,0.00693965517 L2.87323199,0.00693965517 C1.31450099,0.00693965517 0.0132187707,1.27227011 0.0132187707,2.78765948 L0.0132187707,20.8240546 L11.6771712,20.8240546 L11.6771712,10.9456868 L12.2881956,10.9456868 C13.2585063,10.9456868 14.0453668,11.7106681 14.0453668,12.6539986 L14.0453668,18.0431034 L14.0458427,18.0431034 C14.0458427,19.5788491 15.3266623,20.8238233 16.9060939,20.8238233 C18.4855254,20.8238233 19.7668209,19.5788491 19.7668209,18.0431034 L19.7668209,6.22302011 L17.1040582,3.63429741 Z M10.249306,19.4310345 L1.440846,19.4310345 L1.440846,2.78765948 L1.440846,2.77817529 C1.440846,2.05298132 2.12729676,1.39510201 2.87323199,1.39510201 L8.81192333,1.39510201 L8.82167878,1.39510201 C9.56761401,1.39510201 10.249306,2.05783908 10.249306,2.78303305 L10.249306,19.4310345 L10.249306,19.4310345 Z M17.6622604,9.28456466 C17.139273,9.28456466 16.7155056,8.87234914 16.7155056,8.36390374 C16.7155056,7.85545833 17.139273,7.44324282 17.6622604,7.44324282 C18.1852479,7.44324282 18.6090152,7.85545833 18.6090152,8.36390374 C18.6090152,8.87234914 18.1852479,9.28456466 17.6622604,9.28456466 Z" id="Shape"></path>
                    </g>
                </g>
            </g>
        </g>
    </g>
</svg>
