<?xml version="1.0" encoding="UTF-8"?>
<svg width="19px" height="17px" viewBox="0 0 19 17" version="1.1" xmlns="http://www.w3.org/2000/svg" xmlns:xlink="http://www.w3.org/1999/xlink">
    <!-- Generator: sketchtool 41 (35326) - http://www.bohemiancoding.com/sketch -->
    <title>EECDC54D-3EBF-4A60-8178-294D95AF2442</title>
    <desc>Created with sketchtool.</desc>
    <defs></defs>
    <g id="Page-1" stroke="none" stroke-width="1" fill="none" fill-rule="evenodd" fill-opacity="0.5">
        <g id="Dashboard" transform="translate(-326.000000, -207.000000)" fill="#2E2E2E">
            <g id="Cells" transform="translate(0.000000, 186.000000)">
                <g id="Inventory" transform="translate(18.000000, 0.000000)">
                    <g id="noun_653831_cc" transform="translate(308.000000, 21.000000)">
                        <g id="Group">
                            <g id="Shape">
                                <path d="M6.7984375,0.146551724 L0.8609375,0.146551724 C0.5046875,0.146551724 0.2375,0.439655172 0.2375,0.762068966 L0.2375,6.65344828 C0.2375,7.00517241 0.534375,7.26896552 0.8609375,7.26896552 L6.828125,7.26896552 C7.184375,7.26896552 7.4515625,6.97586207 7.4515625,6.65344828 L7.4515625,0.762068966 C7.4515625,0.410344828 7.1546875,0.146551724 6.7984375,0.146551724 Z M6.175,6.00862069 L1.484375,6.00862069 L1.484375,1.37758621 L6.175,1.37758621 L6.175,6.00862069 Z"></path>
                                <path d="M6.7984375,16.8534483 C7.1546875,16.8534483 7.421875,16.5603448 7.421875,16.237931 L7.421875,10.3465517 C7.421875,9.99482759 7.125,9.73103448 6.7984375,9.73103448 L0.8609375,9.73103448 C0.5046875,9.73103448 0.2375,10.0241379 0.2375,10.3465517 L0.2375,16.237931 C0.2375,16.5896552 0.534375,16.8534483 0.8609375,16.8534483 L6.7984375,16.8534483 Z M1.484375,10.9913793 L6.175,10.9913793 L6.175,15.6224138 L1.484375,15.6224138 L1.484375,10.9913793 Z"></path>
                                <path d="M9.1140625,2.02241379 C9.1140625,2.37413793 9.4109375,2.63793103 9.7375,2.63793103 L18.1390625,2.63793103 C18.4953125,2.63793103 18.7625,2.34482759 18.7625,2.02241379 C18.7625,1.7 18.465625,1.40689655 18.1390625,1.40689655 L9.7375,1.40689655 C9.38125,1.37758621 9.1140625,1.67068966 9.1140625,2.02241379 Z"></path>
                                <path d="M18.1390625,4.74827586 L9.7375,4.74827586 C9.38125,4.74827586 9.1140625,5.04137931 9.1140625,5.3637931 C9.1140625,5.71551724 9.4109375,5.97931034 9.7375,5.97931034 L18.1390625,5.97931034 C18.4953125,5.97931034 18.7625,5.6862069 18.7625,5.3637931 C18.7625,5.04137931 18.4953125,4.74827586 18.1390625,4.74827586 Z"></path>
                                <path d="M18.1390625,10.9913793 L9.7375,10.9913793 C9.38125,10.9913793 9.1140625,11.2844828 9.1140625,11.6068966 C9.1140625,11.9586207 9.4109375,12.2224138 9.7375,12.2224138 L18.1390625,12.2224138 C18.4953125,12.2224138 18.7625,11.9293103 18.7625,11.6068966 C18.7625,11.2551724 18.4953125,10.9913793 18.1390625,10.9913793 Z"></path>
                                <path d="M18.7625,14.9775862 C18.7625,14.6258621 18.465625,14.362069 18.1390625,14.362069 L9.7375,14.362069 C9.38125,14.362069 9.1140625,14.6551724 9.1140625,14.9775862 C9.1140625,15.3293103 9.4109375,15.5931034 9.7375,15.5931034 L18.1390625,15.5931034 C18.4953125,15.6224138 18.7625,15.3293103 18.7625,14.9775862 Z"></path>
                            </g>
                        </g>
                    </g>
                </g>
            </g>
        </g>
    </g>
</svg>