<?xml version="1.0" encoding="UTF-8"?>
<svg width="20px" height="21px" viewBox="0 0 20 21" version="1.1" xmlns="http://www.w3.org/2000/svg" xmlns:xlink="http://www.w3.org/1999/xlink">
    <!-- Generator: sketchtool 41 (35326) - http://www.bohemiancoding.com/sketch -->
    <title>E0A37E11-82F5-481A-8C3B-063104A83294</title>
    <desc>Created with sketchtool.</desc>
    <defs></defs>
    <g id="Page-1" stroke="none" stroke-width="1" fill="none" fill-rule="evenodd">
        <g id="Search-result-/-Details-view" transform="translate(-25.000000, -496.000000)" stroke-width="0.5" stroke="#669999" fill="#669999">
            <g id="Group-17" transform="translate(23.000000, 381.000000)">
                <g id="noun_677114_cc" transform="translate(2.500000, 116.000000)">
                    <g id="Group">
                        <path d="M18.5664545,0.297954545 C18.4308636,0.207272727 18.2581364,0.19 18.107,0.253909091 L12.4311818,2.61854545 L6.75622727,0.253909091 C6.63618182,0.203818182 6.50059091,0.203818182 6.38054545,0.253909091 L0.516454545,2.69713636 C0.334227273,2.77313636 0.215909091,2.95018182 0.215909091,3.14795455 L0.215909091,18.2952727 C0.215909091,18.4585 0.297090909,18.6113636 0.433545455,18.7020455 C0.514727273,18.7564545 0.609727273,18.7840909 0.704727273,18.7840909 C0.768636364,18.7840909 0.832545455,18.772 0.893,18.7460909 L6.56881818,16.3814545 L12.2446364,18.7460909 C12.3646818,18.7961818 12.5002727,18.7961818 12.6203182,18.7460909 L18.4835455,16.3028636 C18.6657727,16.2268636 18.7840909,16.0489545 18.7840909,15.8520455 L18.7840909,0.704727273 C18.7840909,0.5415 18.7029091,0.388636364 18.5664545,0.297954545 Z M6.07913636,15.5264545 L1.19268182,17.5620455 L1.19268182,3.47354545 L6.07913636,1.43795455 L6.07913636,15.5264545 Z M11.9432273,17.5629091 L7.05677273,15.5273182 L7.05677273,1.43795455 L11.9432273,3.47354545 L11.9432273,17.5629091 Z M17.8064545,15.5264545 L12.92,17.5620455 L12.92,3.47354545 L17.8064545,1.43795455 L17.8064545,15.5264545 Z" id="Shape"></path>
                    </g>
                </g>
            </g>
        </g>
    </g>
</svg>