<?xml version="1.0" encoding="UTF-8"?>
<svg width="22px" height="19px" viewBox="0 0 22 19" version="1.1" xmlns="http://www.w3.org/2000/svg" xmlns:xlink="http://www.w3.org/1999/xlink">
    <!-- Generator: sketchtool 41 (35326) - http://www.bohemiancoding.com/sketch -->
    <title>453A18ED-ADB9-4FBE-83A0-E1F736191B7D</title>
    <desc>Created with sketchtool.</desc>
    <defs></defs>
    <g id="Page-1" stroke="none" stroke-width="1" fill="none" fill-rule="evenodd">
        <g id="Search-result-/-Details-view" transform="translate(-24.000000, -381.000000)" fill="#737373">
            <g id="Group-17" transform="translate(23.000000, 381.000000)">
                <g id="noun_545368_cc" transform="translate(1.000000, 0.000000)">
                    <g id="Group">
                        <path d="M19.0073529,0.102262997 L3.13331202,0.102262997 C1.57193095,0.102262997 0.296803069,1.35498471 0.296803069,2.88892966 L0.296803069,16.0297248 C0.296803069,17.5636697 1.57193095,18.8163914 3.13331202,18.8163914 L19.0073529,18.8163914 C20.568734,18.8163914 21.8438619,17.5636697 21.8438619,16.0297248 L21.8438619,2.88892966 C21.8438619,1.35498471 20.568734,0.102262997 19.0073529,0.102262997 Z M3.13331202,1.58507645 L19.0073529,1.58507645 C19.7359974,1.58507645 20.3345269,2.17308869 20.3345269,2.88892966 L20.3345269,5.36880734 L1.80613811,5.36880734 L1.80613811,2.88892966 C1.80613811,2.17308869 2.40466752,1.58507645 3.13331202,1.58507645 Z M19.0073529,17.333578 L3.13331202,17.333578 C2.40466752,17.333578 1.80613811,16.7455657 1.80613811,16.0297248 L1.80613811,6.87718654 L20.3345269,6.87718654 L20.3345269,16.0297248 C20.3345269,16.7455657 19.7359974,17.333578 19.0073529,17.333578 Z" id="Shape"></path>
                        <rect id="Rectangle-path" x="3.86195652" y="9.30593272" width="14.4427749" height="1.48281346"></rect>
                        <rect id="Rectangle-path" x="3.86195652" y="12.7573089" width="14.4427749" height="1.48281346"></rect>
                        <ellipse id="Oval" cx="5.16310742" cy="3.45137615" rx="1.14501279" ry="1.12489297"></ellipse>
                        <ellipse id="Oval" cx="16.9775575" cy="3.45137615" rx="1.14501279" ry="1.12489297"></ellipse>
                    </g>
                </g>
            </g>
        </g>
    </g>
</svg>
