<?xml version="1.0" encoding="UTF-8"?>
<svg width="21px" height="20px" viewBox="0 0 21 20" version="1.1" xmlns="http://www.w3.org/2000/svg" xmlns:xlink="http://www.w3.org/1999/xlink">
    <!-- Generator: sketchtool 41 (35326) - http://www.bohemiancoding.com/sketch -->
    <title>04A7F065-B7FB-49C9-B75F-60B5FED7ECB6</title>
    <desc>Created with sketchtool.</desc>
    <defs></defs>
    <g id="Page-1" stroke="none" stroke-width="1" fill="none" fill-rule="evenodd">
        <g id="Search-result-/-Details-view" transform="translate(-208.000000, -530.000000)" fill="#699999">
            <g id="Group-5" transform="translate(208.000000, 381.000000)">
                <g id="noun_666394_cc" transform="translate(0.000000, 149.000000)">
                    <g id="Artboard-30">
                        <path d="M13.3812,15.5925959 L10.479,13.9280999 L7.6188,15.5925959 L7.1211,14.7309991 L10.0023,13.0539251 L10.0023,9.75008921 L10.9977,9.75008921 L10.9977,13.0790812 L13.8789,14.7309991 L13.3812,15.5925959 Z M11.9406,4.99977698 L11.4072,7.90321142 L14.1939,7.90321142 L14.1939,6.85504014 C14.1948634,6.63637684 14.0977999,6.42874585 13.9293,6.28902765 C13.3108371,5.79455044 12.6446611,5.36267644 11.9406,4.99977698 L11.9406,4.99977698 Z M9.0636,3.56378234 C9.09774824,3.76647687 9.16893113,3.96117829 9.2736,4.1381802 L9.2736,4.64968778 L10.3824,5.45049063 L9.9624,5.97876896 L10.2417,6.42738626 L10.0317,7.89482605 L10.9767,7.89482605 L10.7667,6.42738626 L11.046,5.97876896 L10.626,5.45049063 L11.7348,4.64549509 L11.7348,4.12769848 C11.8390714,3.95352412 11.9102625,3.76164274 11.9448,3.56168599 C12.0246,3.56168599 12.1317,3.44219447 12.2451,3.04179304 C12.4005,2.49255129 12.2451,2.41289028 12.096,2.42337199 C12.1224028,2.34967277 12.1427696,2.27395584 12.1569,2.19696699 C12.3942,0.773550401 11.6928,0.729527208 11.6928,0.729527208 C11.5908812,0.56335041 11.445731,0.427871333 11.2728,0.337511151 C11.0098497,0.185848024 10.7052614,0.121951798 10.4034,0.155129349 C10.2816912,0.155888654 10.1607347,0.174247672 10.0443,0.209634255 L10.0443,0.209634255 C9.90747914,0.256776209 9.77808024,0.323127641 9.66,0.406690455 C9.51683763,0.497641226 9.3856211,0.606093653 9.2694,0.729527208 C9.06404065,0.93305935 8.91873782,1.18907219 8.8494,1.46953613 C8.79445488,1.70749574 8.79445488,1.9548147 8.8494,2.19277431 L8.8494,2.19277431 C8.86352134,2.26976519 8.8838884,2.34548284 8.9103,2.4191793 C8.7696,2.40660125 8.6037,2.48626227 8.7612,3.03760036 C8.8767,3.44009813 8.9838,3.56378234 9.0636,3.56378234 Z M6.8061,6.86342551 L6.8061,7.91159679 L9.5928,7.91159679 L9.0594,4.99977698 C8.35533191,5.36266445 7.68915477,5.7945392 7.0707,6.28902765 C6.8999047,6.43060629 6.8026003,6.64183621 6.8061,6.86342551 L6.8061,6.86342551 Z M18.5514,16.6156111 L18.0096,19.565165 L20.8425,19.565165 L20.8425,18.5169938 C20.8469128,18.2938774 20.7505113,18.0806238 20.58,17.9363069 C19.9495643,17.4297094 19.269987,16.9872787 18.5514,16.6156111 L18.5514,16.6156111 Z M18.1671,12.4459857 C18.0229056,12.0417562 17.6111017,11.7970409 17.1864,11.8632025 C16.740737,11.909101 16.2913195,11.9048819 15.8466,11.8506244 C15.8463971,11.9753284 15.9018132,12.0936507 15.9978,12.1734612 C15.2061,12.65562 15.3867,13.7184657 15.4581,14.0224353 C15.3237,14.0224353 15.183,14.1251561 15.3321,14.6513381 C15.4476,15.0580285 15.5547,15.171231 15.6366,15.1775201 C15.6717379,15.3786332 15.7428734,15.5717847 15.8466,15.7477252 L15.8466,16.2550401 L16.9722,17.0726137 L16.5522,17.6092774 L16.8357,18.0662801 L16.6131,19.5672614 L17.5728,19.5672614 L17.3502,18.0662801 L17.64,17.6092774 L17.22,17.0726137 L18.3456,16.2550401 L18.3456,15.7477252 C18.4493266,15.5717847 18.5204621,15.3786332 18.5556,15.1775201 C18.6375,15.1775201 18.7446,15.0580285 18.8601,14.6513381 C19.0113,14.1146744 18.8601,14.0224353 18.7236,14.0224353 C19.0533,12.4522748 18.1671,12.4459857 18.1671,12.4459857 Z M15.6261,16.6156111 C14.9096898,16.9876282 14.2322366,17.43005 13.6038,17.9363069 C13.4326583,18.0780094 13.3340408,18.2887448 13.335,18.5107047 L13.335,19.558876 L16.17,19.558876 L15.6261,16.6156111 Z M4.83,19.565165 L7.665,19.565165 L7.665,18.5169938 C7.66595917,18.2950338 7.56734166,18.0842984 7.3962,17.9425959 C6.76775518,17.4363503 6.09030313,16.9939293 5.3739,16.6219001 L4.83,19.565165 Z M3.78,17.0726137 L3.36,17.6092774 L3.6435,18.0662801 L3.4209,19.5672614 L4.3806,19.5672614 L4.158,18.0662801 L4.4541,17.6092774 L4.0341,17.0726137 L5.1597,16.2550401 L5.1597,15.7477252 C5.26342661,15.5717847 5.33456209,15.3786332 5.3697,15.1775201 C5.4516,15.1775201 5.5587,15.0580285 5.6742,14.6513381 C5.8254,14.1146744 5.6742,14.0224353 5.5377,14.0224353 C5.8821,12.4480821 4.9959,12.4438894 4.9959,12.4438894 C4.85170555,12.0396599 4.43990169,11.7949445 4.0152,11.8611062 C3.56953696,11.9070047 3.12011949,11.9027855 2.6754,11.8485281 C2.67519713,11.9732321 2.73061316,12.0915544 2.8266,12.1713649 C2.0349,12.6535236 2.2155,13.7163693 2.2869,14.020339 C2.1525,14.020339 2.0118,14.1230598 2.1609,14.6492417 C2.2764,15.0559322 2.3835,15.1691347 2.4654,15.1754237 C2.50053791,15.3765368 2.57167339,15.5696883 2.6754,15.7456289 L2.6754,16.2529438 L3.78,17.0726137 Z M2.4381,16.6156111 C1.72314572,16.9878687 1.04710923,17.4302841 0.42,17.9363069 C0.251207737,18.0792183 0.154982324,18.2897771 0.1575,18.5107047 L0.1575,19.558876 L2.9904,19.558876 L2.4381,16.6156111 Z" id="Shape"></path>
                    </g>
                </g>
            </g>
        </g>
    </g>
</svg>
