<?xml version="1.0" encoding="UTF-8"?>
<svg width="15px" height="18px" viewBox="0 0 15 18" version="1.1" xmlns="http://www.w3.org/2000/svg" xmlns:xlink="http://www.w3.org/1999/xlink">
    <!-- Generator: sketchtool 41 (35326) - http://www.bohemiancoding.com/sketch -->
    <title>3E3047EC-3B75-485A-94C6-CFEA25E55BC6</title>
    <desc>Created with sketchtool.</desc>
    <defs></defs>
    <g id="Page-1" stroke="#8d8d8d" stroke-width="1" fill="none" fill-rule="evenodd">
        <g id="Search-result-/-Details-view" transform="translate(-211.000000, -496.000000)" fill="#8d8d8d">
            <g id="Group-5" transform="translate(208.000000, 381.000000)">
                <g id="noun_57916_cc" transform="translate(3.500000, 115.000000)">
                    <g id="Group">
                        <path d="M7.04364138,1.27532432 C8.57263448,1.27532432 10.0102897,1.8779136 11.0918621,2.97230483 C12.1732414,4.06610988 12.7691586,5.52041338 12.7695448,7.06694196 C12.769931,8.60760877 12.1796138,10.0562459 11.1069241,11.148097 L11.1040276,11.1508325 L11.0872276,11.1678316 L11.0578759,11.1975312 L11.0306483,11.2293802 L7.04673103,15.8945623 L3.05798621,11.2219553 L3.03037241,11.1895202 L3.00044138,11.1594298 C1.91944828,10.0654293 1.32391724,8.61132122 1.32353103,7.06479265 C1.32333793,5.51826407 1.91828966,4.06435135 2.99908966,2.97074169 C4.07911724,1.87732743 5.51561379,1.27532432 7.04364138,1.27532432 L7.04364138,1.27532432 Z M7.04364138,0.102971644 C5.28311724,0.102971644 3.52297931,0.782350022 2.17975172,2.14169296 C-0.507668966,4.86076961 -0.506124138,9.26901108 2.18129655,11.9882831 L7.04653793,17.6878711 L11.9073379,11.9959034 C11.9096552,11.9935587 11.9112,11.9919956 11.9135172,11.9898463 C14.6007448,9.27116039 14.5992,4.86252813 11.9110069,2.14325609 C10.5670069,0.783326983 8.80513103,0.102971644 7.04364138,0.102971644 L7.04364138,0.102971644 Z" id="Shape"></path>
                        <path d="M7.04634483,4.7171564 C5.76433103,4.7171564 4.72524138,5.76856136 4.72524138,7.065965 C4.72524138,8.36297785 5.76433103,9.41438281 7.04634483,9.41438281 C8.32816552,9.41438281 9.36744828,8.36297785 9.36744828,7.065965 C9.36744828,5.76856136 8.32816552,4.7171564 7.04634483,4.7171564 Z" id="Shape"></path>
                    </g>
                </g>
            </g>
        </g>
    </g>
</svg>
