<?xml version="1.0" encoding="UTF-8"?>
<svg width="26px" height="15px" viewBox="0 0 26 15" version="1.1" xmlns="http://www.w3.org/2000/svg" xmlns:xlink="http://www.w3.org/1999/xlink">
    <!-- Generator: sketchtool 41 (35326) - http://www.bohemiancoding.com/sketch -->
    <title>BF4CE9D2-2EFE-407C-8C40-72B83B3F266F</title>
    <desc>Created with sketchtool.</desc>
    <defs></defs>
    <g id="Page-1" stroke="none" stroke-width="1" fill="none" fill-rule="evenodd">
        <g id="Search-result-/-Details-view" transform="translate(-22.000000, -535.000000)" fill="#699999">
            <g id="Group-17" transform="translate(23.000000, 381.000000)">
                <g id="noun_420840_cc" transform="translate(0.000000, 154.000000)">
                    <g id="Group">
                        <g transform="translate(0.000000, 0.531500)" id="Group-3">
                            <g>
                                <g>
                                    <g>
                                        <g>
                                            <path d="M1.2555804,0.301833333 C0.9371808,0.301833333 0.639950829,0.397309917 0.406808057,0.57364325 C0.1736652,0.749976583 0,1.02666667 0,1.3435 L0,12.5935 C0,12.9104167 0.1736652,13.1887342 0.406808057,13.3649842 C0.639950829,13.5413175 0.937180886,13.6351667 1.2555804,13.6351667 L22.7444194,13.6351667 C23.0628189,13.6351667 23.3600494,13.5413175 23.5931923,13.3649842 C23.8263351,13.1887342 24,12.9104167 24,12.5935 L24,1.3435 C24,1.02666667 23.8263351,0.749976583 23.5931923,0.57364325 C23.3600494,0.397309917 23.0628189,0.301833333 22.7444194,0.301833333 L1.2555804,0.301833333 Z M1.2555804,1.13516667 L22.7444194,1.13516667 C22.8839186,1.13516667 23.0018743,1.18177833 23.067522,1.23119533 C23.1331706,1.28119533 23.1428571,1.31458333 23.1428571,1.3435 L23.1428571,12.5935 C23.1428571,12.6226667 23.1331714,12.6576833 23.0675229,12.7074325 C23.0018734,12.7574325 22.8839186,12.8018333 22.7444194,12.8018333 L1.2555804,12.8018333 C1.11608177,12.8018333 0.998125629,12.7568492 0.932477657,12.7074325 C0.866829686,12.6578492 0.857142857,12.6229167 0.857142857,12.5935 L0.857142857,1.3435 C0.857142857,1.31433333 0.866829086,1.28094533 0.932477657,1.23119533 C0.998125371,1.18119533 1.11608177,1.13516667 1.2555804,1.13516667 Z" id="Shape" stroke="#737373" stroke-width="0.55"></path>
                                            <path d="M21.4285714,10.3018333 C20.9602611,10.3018333 20.5714286,10.6799167 20.5714286,11.1351667 C20.5714286,11.5905 20.9602611,11.9685 21.4285714,11.9685 C21.8968817,11.9685 22.2857143,11.5905 22.2857143,11.1351667 C22.2857143,10.6799167 21.8968817,10.3018333 21.4285714,10.3018333 Z" id="Path"></path>
                                            <path d="M2.57142857,10.3018333 C2.10311794,10.3018333 1.71428571,10.6799167 1.71428571,11.1351667 C1.71428571,11.5905 2.10311794,11.9685 2.57142857,11.9685 C3.0397392,11.9685 3.42857143,11.5905 3.42857143,11.1351667 C3.42857143,10.6799167 3.0397392,10.3018333 2.57142857,10.3018333 Z" id="Path"></path>
                                            <path d="M21.4285714,1.9685 C20.9602611,1.9685 20.5714286,2.34658333 20.5714286,2.80183333 C20.5714286,3.25716667 20.9602611,3.63516667 21.4285714,3.63516667 C21.8968817,3.63516667 22.2857143,3.25716667 22.2857143,2.80183333 C22.2857143,2.34658333 21.8968817,1.9685 21.4285714,1.9685 Z" id="Path"></path>
                                            <path d="M2.57142857,1.9685 C2.10311794,1.9685 1.71428571,2.34658333 1.71428571,2.80183333 C1.71428571,3.25716667 2.10311794,3.63516667 2.57142857,3.63516667 C3.0397392,3.63516667 3.42857143,3.25716667 3.42857143,2.80183333 C3.42857143,2.34658333 3.0397392,1.9685 2.57142857,1.9685 Z" id="Path"></path>
                                        </g>
                                    </g>
                                </g>
                            </g>
                        </g>
                    </g>
                </g>
            </g>
        </g>
    </g>
</svg>
