<?xml version="1.0" encoding="UTF-8"?>
<svg width="21px" height="21px" viewBox="0 0 21 21" version="1.1" xmlns="http://www.w3.org/2000/svg" xmlns:xlink="http://www.w3.org/1999/xlink">
    <!-- Generator: sketchtool 41 (35326) - http://www.bohemiancoding.com/sketch -->
    <title>1ED8DE3E-AC1F-46C0-ACF4-B73FFAF85911</title>
    <desc>Created with sketchtool.</desc>
    <defs></defs>
    <g id="Page-1" stroke="none" stroke-width="1" fill="none" fill-rule="evenodd">
        <g id="Search-result-/-Details-view" transform="translate(-208.000000, -381.000000)" fill="#699999">
            <g id="Group-5" transform="translate(208.000000, 381.000000)">
                <g id="noun_57338_cc">
                    <g id="Group">
                        <path d="M10.5,0 C4.70096667,0 0,4.66020977 0,10.4094828 C0,16.1585244 4.70096667,20.8189655 10.5,20.8189655 C16.2990333,20.8189655 21,16.1585244 21,10.4094828 C21,4.66020977 16.2990333,0 10.5,0 Z M10.5,19.4079023 C5.48706667,19.4079023 1.42333333,15.3789698 1.42333333,10.4094828 C1.42333333,5.43953305 5.4873,1.41106322 10.5,1.41106322 C15.5127,1.41106322 19.5766667,5.43976437 19.5766667,10.4094828 C19.5766667,15.3789698 15.5127,19.4079023 10.5,19.4079023 Z" id="Shape"></path>
                        <path d="M11.9585667,13.2711652 C11.7369,13.0514095 11.4767333,12.894342 11.2,12.7953362 L11.2,6.93965517 C11.2,6.55635489 10.8866333,6.24568966 10.5,6.24568966 C10.1133667,6.24568966 9.8,6.55635489 9.8,6.93965517 L9.8,12.7948736 C9.52303333,12.893648 9.26263333,13.0504842 9.04096667,13.2707026 C8.23503333,14.0694569 8.23573333,15.3643966 9.04143333,16.1633822 C9.84736667,16.9621365 11.1533333,16.9625991 11.9592667,16.1638448 C12.7649667,15.3650905 12.7645,14.0699195 11.9585667,13.2711652 Z M10.5,15.637819 C9.9869,15.637819 9.5711,15.2253721 9.5711,14.7173894 C9.5711,14.2091753 9.9869,13.7969598 10.5,13.7969598 C11.0131,13.7969598 11.4289,14.208944 11.4289,14.7173894 C11.4289,15.2251408 11.0131,15.637819 10.5,15.637819 Z" id="Shape"></path>
                        <path d="M10.5,2.45201149 C10.2118333,2.45201149 9.97756667,2.68287069 9.97756667,2.96670259 L9.97756667,3.80385632 C9.97756667,4.08791954 10.2118333,4.31901006 10.5,4.31901006 C10.7879333,4.31901006 11.0222,4.08791954 11.0222,3.80385632 L11.0222,2.96670259 C11.0222,2.68287069 10.7879333,2.45201149 10.5,2.45201149 Z" id="Shape"></path>
                        <path d="M5.56056667,4.7802658 C5.36456667,4.58618678 5.0211,4.58711207 4.82416667,4.78257902 C4.62046667,4.98452299 4.6193,5.31207471 4.8216,5.51263075 L5.41893333,6.10481466 C5.51646667,6.20150718 5.64666667,6.25471121 5.78526667,6.25471121 C5.92526667,6.25471121 6.05663333,6.20081322 6.15556667,6.10250144 C6.35926667,5.90055747 6.35996667,5.57300575 6.15743333,5.37221839 L5.56056667,4.7802658 Z" id="Shape"></path>
                        <path d="M15.4392,4.78049713 L14.8421,5.37244971 C14.7438667,5.46960489 14.6902,5.59937644 14.6909,5.7377069 C14.6913667,5.87557471 14.7457333,6.00534626 14.8442,6.10296408 C14.9431333,6.20104454 15.0745,6.25494253 15.2142667,6.25494253 C15.3531,6.25494253 15.4830667,6.20173851 15.5808333,6.10481466 L16.1779333,5.51286207 C16.2761667,5.4157069 16.3296,5.28593534 16.3291333,5.14783621 C16.3286667,5.00996839 16.2740667,4.88042816 16.1756,4.78281034 C15.9789,4.58757471 15.6354333,4.58618678 15.4392,4.78049713 Z" id="Shape"></path>
                        <path d="M3.8367,9.89155316 L2.99226667,9.89155316 C2.70596667,9.89155316 2.4731,10.1238003 2.4731,10.4092514 C2.4731,10.6949339 2.70596667,10.9274124 2.99226667,10.9274124 L3.8367,10.9274124 C4.12323333,10.9274124 4.35633333,10.6949339 4.35633333,10.4092514 C4.3561,10.1238003 4.123,9.89155316 3.8367,9.89155316 Z" id="Shape"></path>
                        <path d="M18.0070333,9.89155316 L17.1626,9.89155316 C16.8763,9.89155316 16.6434333,10.1238003 16.6434333,10.4092514 C16.6434333,10.6949339 16.8763,10.9274124 17.1626,10.9274124 L18.0070333,10.9274124 C18.2935667,10.9274124 18.5266667,10.6949339 18.5266667,10.4092514 C18.5264333,10.1238003 18.2933333,9.89155316 18.0070333,9.89155316 Z" id="Shape"></path>
                    </g>
                </g>
            </g>
        </g>
    </g>
</svg>
