<?xml version="1.0" encoding="UTF-8"?>
<svg width="48px" height="48px" viewBox="0 0 48 48" version="1.1" xmlns="http://www.w3.org/2000/svg" xmlns:xlink="http://www.w3.org/1999/xlink">
    <!-- Generator: Sketch 45.1 (43504) - http://www.bohemiancoding.com/sketch -->
    <title>Shape</title>
    <desc>Created with Sketch.</desc>
    <defs></defs>
    <g id="Hamburger-Menu" stroke="none" stroke-width="1" fill="none" fill-rule="evenodd" opacity="0.799999952">
        <g id="Navigation-Drawer---not-login-Copy" transform="translate(-13.000000, -518.000000)" fill-rule="nonzero" fill="#585858">
            <g id="Drawer">
                <g id="Main-Items" transform="translate(13.000000, 56.000000)">
                    <g id="Group-13" transform="translate(0.000000, 462.000000)">
                        <g id="noun_1165193_cc">
                            <path d="M35.2,0 L6.4,0 C2.8653776,0 0,2.96418373 0,6.62068966 L0,40.5517241 C0,44.2082301 2.8653776,47.1724138 6.4,47.1724138 L45.6,47.1724138 C46.9254834,47.1724138 48,46.0608449 48,44.6896552 L48,10.7586207 C48,9.38743097 46.9254834,8.27586207 45.6,8.27586207 L37.6,8.27586207 L37.6,2.48275862 C37.6,1.1115689 36.5254834,0 35.2,0 Z M6.4,4.96551724 L32.8,4.96551724 L32.8,8.27586207 L6.4,8.27586207 C5.5163444,8.27586207 4.8,7.53481614 4.8,6.62068966 C4.8,5.70656317 5.5163444,4.96551724 6.4,4.96551724 Z M43.2,30.6206897 L39.2,30.6206897 C37.8745166,30.6206897 36.8,29.5091208 36.8,28.137931 C36.8,26.7667413 37.8745166,25.6551724 39.2,25.6551724 L43.2,25.6551724 L43.2,30.6206897 Z M43.2,20.6896552 L39.2,20.6896552 C35.2235498,20.6896552 32,24.0243619 32,28.137931 C32,32.2515002 35.2235498,35.5862069 39.2,35.5862069 L43.2,35.5862069 L43.2,42.2068966 L6.4,42.2068966 C5.5163444,42.2068966 4.8,41.4658506 4.8,40.5517241 L4.8,13.0344828 L4.928,13.0344828 L5.424,13.1337931 L5.656,13.1337931 C5.90285658,13.1652865 6.15127797,13.1818664 6.4,13.1834483 L43.2,13.1834483 L43.2,20.6896552 Z" id="Shape"></path>
                        </g>
                    </g>
                </g>
            </g>
        </g>
    </g>
</svg>