<?xml version="1.0" encoding="utf-8"?>
<!-- Generator: Adobe Illustrator 23.0.1, SVG Export Plug-In . SVG Version: 6.00 Build 0)  -->
<svg version="1.1" id="Layer_1" xmlns="http://www.w3.org/2000/svg" xmlns:xlink="http://www.w3.org/1999/xlink" x="0px" y="0px"
	 viewBox="0 0 24 24" style="enable-background:new 0 0 24 24;" xml:space="preserve">
<style type="text/css">
	.st0{fill:#585858;}
</style>
<path class="st0" d="M18,16v-5c0-3.1-1.6-5.6-4.5-6.3V4c0-0.8-0.7-1.5-1.5-1.5S10.5,3.2,10.5,4v0.7C7.6,5.4,6,7.9,6,11v5l-2,2v1h16
	v-1L18,16z M13,16h-2v-2h2V16z M13,12h-2V8h2V12z M12,22c1.1,0,2-0.9,2-2h-4C10,21.1,10.9,22,12,22z"/>
</svg>
