<?xml version="1.0" encoding="UTF-8"?>
<svg width="8px" height="8px" viewBox="0 0 8 8" version="1.1" xmlns="http://www.w3.org/2000/svg" xmlns:xlink="http://www.w3.org/1999/xlink">
    <!-- Generator: sketchtool 41 (35326) - http://www.bohemiancoding.com/sketch -->
    <title>43834E3C-51B5-4BF3-9DD1-CBC5F6A115B9</title>
    <desc>Created with sketchtool.</desc>
    <defs></defs>
    <g id="Page-1" stroke="none" stroke-width="1" fill="none" fill-rule="evenodd">
        <g id="Home-page-final" transform="translate(-322.000000, -198.000000)" fill="#ffffff">
            <g id="-Premium-Cars-/-Dealers-–-Slider" transform="translate(316.950000, 182.900000)">
                <g id="Group-2" transform="translate(0.695218, 7.200000)">
                    <g id="Group-3" transform="translate(3.846927, 7.012623)">
                        <g id="Group-4">
                            <g id="noun_653757_cc" transform="translate(0.802572, 1.081340)">
                                <g id="Group">
                                    <g transform="translate(0.368019, 0.300961)" id="Shape">
                                        <path d="M3.23223708,4.51651262 C4.16312136,4.51651262 4.92161967,3.75801432 4.92161967,2.82713004 L4.92161967,1.76695627 C4.92161967,0.836071992 4.16312136,0.07757369 3.23223708,0.07757369 C2.3013528,0.07757369 1.5428545,0.836071992 1.5428545,1.76695627 L1.5428545,2.83574933 C1.5428545,3.75801432 2.3013528,4.51651262 3.23223708,4.51651262 Z"></path>
                                        <path d="M6.1886566,7.31778476 C6.32656539,7.31778476 6.43861627,7.20573387 6.43861627,7.06782509 L6.43861627,6.46447417 C6.43861627,5.96455483 6.17141801,5.48187409 5.74045306,5.22329513 L4.56822841,4.50789332 C4.47341612,4.44755823 4.36136524,4.46479683 4.27517225,4.53375122 C3.98211609,4.78371088 3.61148623,4.92161967 3.23223708,4.92161967 C2.84436863,4.92161967 2.47373878,4.78371088 2.18068262,4.52513192 C2.09448963,4.45617753 1.97381945,4.43893893 1.88762646,4.49927402 L0.715401808,5.22329513 C0.284436863,5.49049339 0.0258578967,5.95593553 0.0258578967,6.45585487 L0.0258578967,7.06782509 C0.0258578967,7.20573387 0.137908782,7.31778476 0.275817564,7.31778476 L6.1886566,7.31778476 Z"></path>
                                    </g>
                                </g>
                            </g>
                        </g>
                    </g>
                </g>
            </g>
        </g>
    </g>
</svg>
