<?xml version="1.0" encoding="UTF-8"?>
<svg width="20px" height="27px" viewBox="0 0 20 27" version="1.1" xmlns="http://www.w3.org/2000/svg" xmlns:xlink="http://www.w3.org/1999/xlink">
    <!-- Generator: Sketch 41 (35326) - http://www.bohemiancoding.com/sketch -->
    <title>Group</title>
    <desc>Created with Sketch.</desc>
    <defs></defs>
    <g id="Page-1" stroke="none" stroke-width="1" fill="none" fill-rule="evenodd">
        <g id="Suzuki-/-Details" transform="translate(-212.000000, -492.000000)" fill="#699999">
            <g id="Group-13" transform="translate(210.000000, 492.000000)">
                <g id="Group-9" transform="translate(2.000000, 0.500000)">
                    <g id="Group">
                        <polygon id="Shape" points="10 21 1.13348102 21 0 12.1419305 0.855223118 12 1.8808579 20.018383 10 20.018383"></polygon>
                        <g transform="translate(1.000000, 0.000000)" id="Shape">
                            <path d="M3.15721127,5.43686 C4.7026338,5.43686 5.95583099,4.21902 5.95583099,2.7183 C5.95609859,1.21784 4.7026338,0 3.15721127,0 C1.61285915,0 0.359394366,1.21784 0.359394366,2.7183 C0.359394366,4.21902 1.61285915,5.43686 3.15721127,5.43686 Z"></path>
                            <path d="M18.4075211,23.78714 L14.0755211,16.22296 C13.9607183,15.90082 13.7594789,15.6221 13.4950845,15.40708 C13.1736901,15.12524 12.7618451,14.97288 12.3374225,14.97288 C12.3130704,14.97184 12.2897887,14.9656 12.2659718,14.9656 L5.19235211,14.9656 L3.99722535,7.9534 C3.99722535,6.9212 3.13607042,6.08452 2.07367606,6.08452 C1.01128169,6.08452 0.149859155,6.9212 0.149859155,7.9534 L1.66397183,16.83448 C1.66397183,16.96344 1.67761972,17.08928 1.70277465,17.21096 C1.75201408,17.44262 1.84647887,17.65582 1.97439437,17.84692 C1.9808169,17.85758 1.9856338,17.86928 1.99205634,17.87916 C2.03567606,17.9413 2.08946479,17.99642 2.13923944,18.0531 C2.16894366,18.08664 2.19490141,18.12408 2.22647887,18.1558 C2.25243662,18.18024 2.28214085,18.19818 2.30890141,18.22184 C2.64929577,18.51824 3.09432394,18.70362 3.58725352,18.70362 L11.7371831,18.70362 L16.4114507,24.97196 C16.9046479,25.7686 17.4387887,26.29588 18.259,25.81852 C19.0810845,25.33986 18.8991127,24.58638 18.4075211,23.78714 Z"></path>
                        </g>
                    </g>
                </g>
            </g>
        </g>
    </g>
</svg>