<?xml version="1.0" encoding="UTF-8"?>
<svg width="21px" height="21px" viewBox="0 0 21 21" version="1.1" xmlns="http://www.w3.org/2000/svg" xmlns:xlink="http://www.w3.org/1999/xlink">
    <!-- Generator: sketchtool 41 (35326) - http://www.bohemiancoding.com/sketch -->
    <title>4DF33F89-EF08-4A68-9C43-331C2E01A7E1</title>
    <desc>Created with sketchtool.</desc>
    <defs></defs>
    <g id="Page-1" stroke="none" stroke-width="1" fill="none" fill-rule="evenodd" fill-opacity="0.5">
        <g id="Dashboard" transform="translate(-325.000000, -258.000000)" fill="#2E2E2E">
            <g id="Cells" transform="translate(0.000000, 186.000000)">
                <g id="Sell-your-car" transform="translate(18.000000, 55.000000)">
                    <g id="noun_669265_cc" transform="translate(307.500000, 17.500000)">
                        <g id="Group">
                            <path d="M10,0 C4.486,0 0,4.486 0,10 C0,15.514 4.486,20 10,20 C15.514,20 20,15.514 20,10 C20,4.486 15.514,0 10,0 Z M10,18.8888889 C5.09866667,18.8888889 1.11111111,14.9013333 1.11111111,10 C1.11111111,5.09866667 5.09866667,1.11111111 10,1.11111111 C14.9013333,1.11111111 18.8888889,5.09866667 18.8888889,10 C18.8888889,14.9013333 14.9013333,18.8888889 10,18.8888889 Z" id="Shape"></path>
                            <path d="M13.3333333,9.44444444 L10.5555556,9.44444444 L10.5555556,6.66666667 C10.5555556,6.35977778 10.3068889,6.11111111 10,6.11111111 C9.69311111,6.11111111 9.44444444,6.35977778 9.44444444,6.66666667 L9.44444444,9.44444444 L6.66666667,9.44444444 C6.35977778,9.44444444 6.11111111,9.69311111 6.11111111,10 C6.11111111,10.3068889 6.35977778,10.5555556 6.66666667,10.5555556 L9.44444444,10.5555556 L9.44444444,13.3333333 C9.44444444,13.6402222 9.69311111,13.8888889 10,13.8888889 C10.3068889,13.8888889 10.5555556,13.6402222 10.5555556,13.3333333 L10.5555556,10.5555556 L13.3333333,10.5555556 C13.6402222,10.5555556 13.8888889,10.3068889 13.8888889,10 C13.8888889,9.69311111 13.6402222,9.44444444 13.3333333,9.44444444 Z" id="Shape"></path>
                        </g>
                    </g>
                </g>
            </g>
        </g>
    </g>
</svg>