<?xml version="1.0" encoding="UTF-8"?>
<svg width="22px" height="19px" viewBox="0 0 22 19" version="1.1" xmlns="http://www.w3.org/2000/svg" xmlns:xlink="http://www.w3.org/1999/xlink">
    <!-- Generator: sketchtool 41 (35326) - http://www.bohemiancoding.com/sketch -->
    <title>7E412F56-4054-47C4-A11E-F51FA89A63C6</title>
    <desc>Created with sketchtool.</desc>
    <defs></defs>
    <g id="Page-1" stroke="none" stroke-width="1" fill="none" fill-rule="evenodd">
        <g id="Search-result-/-Details-view" transform="translate(-24.000000, -458.000000)" fill="#699999">
            <g id="Group-17" transform="translate(23.000000, 381.000000)">
                <g id="Group" transform="translate(1.000000, 77.000000)">
                    <path d="M22,2.20512787 C22,0.987259057 21.0322444,0 19.8386222,0 C18.6440222,0 17.6762667,0.987259057 17.6762667,2.20512787 C17.6762667,3.16047552 18.2732,3.97147393 19.1072444,4.27762397 L19.1072444,7.24613245 L19.1072444,7.25635407 C19.1072444,8.03793416 18.4069111,8.75220113 17.6405778,8.75220113 L11.7308889,8.75220113 L11.7308889,4.27762397 C12.5644444,3.97147393 13.1618667,3.16047552 13.1618667,2.20512787 C13.1618667,0.987259057 12.1938667,8.85719383e-16 11.0002444,8.85719383e-16 C9.80588889,8.85719383e-16 8.83813333,0.987259057 8.83813333,2.20512787 C8.83813333,3.16047552 9.43531111,3.97172324 10.2691111,4.27762397 L10.2691111,8.75220113 L2.89251111,8.75220113 L2.89251111,4.27762397 C3.72606667,3.97172324 4.32348889,3.16047552 4.32348889,2.20512787 C4.32348889,0.987259057 3.35548889,8.85719383e-16 2.16186667,8.85719383e-16 C0.967755556,4.42859691e-16 0,0.987259057 0,2.20512787 C0,3.16047552 0.597177778,3.97172324 1.43097778,4.27762397 L1.43097778,14.722376 C0.597177778,15.0282768 0,15.8395245 0,16.7951214 C0,18.0124916 0.967755556,19 2.16211111,19 C3.35573333,19 4.32373333,18.0124916 4.32373333,16.7951214 C4.32373333,15.8392752 3.72631111,15.0280275 2.89275556,14.722376 L2.89275556,10.2480482 L10.2691111,10.2480482 L10.2691111,14.722376 C9.43531111,15.0282768 8.83813333,15.8392752 8.83813333,16.7951214 C8.83813333,18.0124916 9.80588889,19 11.0002444,19 C12.1938667,19 13.1618667,18.0124916 13.1618667,16.7951214 C13.1618667,15.8392752 12.5646889,15.0280275 11.7308889,14.722376 L11.7308889,10.2480482 L17.6405778,10.2480482 C19.2419333,10.2480482 20.5739111,8.87934813 20.5739111,7.24613245 L20.5690222,7.24613245 L20.5690222,4.27762397 C21.4028222,3.97197255 22,3.16072483 22,2.20512787 Z M11.0002444,1.21263335 C11.5372889,1.21263335 11.9728889,1.65689992 11.9728889,2.20512787 C11.9728889,2.7528572 11.5372889,3.19712377 11.0002444,3.19712377 C10.4624667,3.19712377 10.0271111,2.7528572 10.0271111,2.20512787 C10.0271111,1.65689992 10.4624667,1.21263335 11.0002444,1.21263335 Z M2.16211111,1.21263335 C2.69915556,1.21263335 3.13475556,1.65689992 3.13475556,2.20512787 C3.13475556,2.7528572 2.69915556,3.19712377 2.16211111,3.19712377 C1.62433333,3.19712377 1.18897778,2.7528572 1.18897778,2.20512787 C1.18873333,1.65689992 1.62433333,1.21263335 2.16211111,1.21263335 Z M2.16211111,17.787616 C1.62433333,17.787616 1.18897778,17.3431001 1.18897778,16.7953707 C1.18897778,16.2471428 1.62433333,15.8031255 2.16211111,15.8031255 C2.69915556,15.8031255 3.13475556,16.2471428 3.13475556,16.7953707 C3.13475556,17.3431001 2.69915556,17.787616 2.16211111,17.787616 Z M11.0002444,17.787616 C10.4624667,17.787616 10.0271111,17.3431001 10.0271111,16.7953707 C10.0271111,16.2471428 10.4624667,15.8031255 11.0002444,15.8031255 C11.5372889,15.8031255 11.9728889,16.2471428 11.9728889,16.7953707 C11.9728889,17.3431001 11.5372889,17.787616 11.0002444,17.787616 Z M19.8386222,1.21263335 C20.3756667,1.21263335 20.8112667,1.65689992 20.8112667,2.20512787 C20.8112667,2.7528572 20.3759111,3.19712377 19.8386222,3.19712377 C19.3006,3.19712377 18.8652444,2.7528572 18.8652444,2.20512787 C18.8652444,1.65689992 19.3006,1.21263335 19.8386222,1.21263335 Z" id="Shape"></path>
                </g>
            </g>
        </g>
    </g>
</svg>
