<?xml version="1.0" encoding="UTF-8"?>
<svg width="103px" height="205px" viewBox="0 0 103 205" version="1.1" xmlns="http://www.w3.org/2000/svg" xmlns:xlink="http://www.w3.org/1999/xlink">
    <!-- Generator: sketchtool 41 (35326) - http://www.bohemiancoding.com/sketch -->
    <title>6A5A2412-EA6B-49FD-9619-7163624EF636</title>
    <desc>Created with sketchtool.</desc>
    <defs></defs>
    <g id="Page-1" stroke="none" stroke-width="1" fill="none" fill-rule="evenodd" fill-opacity="0.280000001">
        <g id="Dashboard-(Top-spot)" transform="translate(-257.000000, -868.000000)" fill="#5EC2B1">
            <g id="Group-3" transform="translate(27.000000, 868.000000)">
                <path d="M230,56.4991751 C230,47.9386513 232.748653,39.265619 238.246042,30.4798182 C243.74343,21.6940173 251.76409,14.4176812 262.308261,8.65059141 C272.852433,2.88350163 285.153781,0 299.212677,0 C312.28024,0 323.81557,2.41042715 333.819015,7.23135376 C343.82246,12.0522804 351.55023,18.6077411 357.002558,26.8979327 C362.454886,35.1881242 365.181009,44.1990668 365.181009,53.9310308 C365.181009,61.5904469 363.626443,68.3035992 360.517264,74.0706889 C357.408086,79.8377787 353.713175,84.8163245 349.432422,89.0064757 C345.151668,93.1966268 337.468958,100.247689 326.38406,110.159875 C323.319941,112.953309 320.864178,115.408791 319.016695,117.526394 C317.169212,119.643997 315.794885,121.58135 314.893674,123.33851 C313.992463,125.09567 313.294034,126.852804 312.798368,128.609964 C312.302702,130.367125 311.559214,133.453372 310.567881,137.868801 C308.85558,147.240321 303.493454,151.926012 294.481341,151.926012 C289.795043,151.926012 285.852303,150.394151 282.653003,147.330385 C279.453703,144.266618 277.854077,139.716092 277.854077,133.67867 C277.854077,126.109365 279.025634,119.553904 281.368783,114.012091 C283.711933,108.470279 286.821065,103.60437 290.696273,99.4142184 C294.571481,95.2240673 299.798428,90.2455215 306.37727,84.4784317 C312.145022,79.4322282 316.313062,75.6251049 318.881514,73.0569478 C321.449966,70.4887906 323.61284,67.6278163 325.370202,64.4739391 C327.127564,61.3200619 328.006232,57.8959037 328.006232,54.2013618 C328.006232,46.9924996 325.325168,40.9101133 319.962962,35.9540205 C314.600755,30.9979278 307.684062,28.5199185 299.212677,28.5199185 C289.299353,28.5199185 281.999652,31.0204551 277.313353,36.0216033 C272.627055,41.0227514 268.661785,48.389197 265.417424,58.121161 C262.353306,68.3036789 256.540581,73.3948615 247.979074,73.3948615 C242.932291,73.3948615 238.674132,71.6152003 235.204469,68.0558246 C231.734806,64.4964489 230,60.6442709 230,56.4991751 Z M295.968332,204.640553 C290.470944,204.640553 285.672066,202.860892 281.571555,199.301516 C277.471044,195.74214 275.420819,190.763595 275.420819,184.365729 C275.420819,178.68875 277.403454,173.912951 281.368783,170.038187 C285.334113,166.163424 290.200581,164.226071 295.968332,164.226071 C301.645963,164.226071 306.422311,166.163424 310.297519,170.038187 C314.172728,173.912951 316.110303,178.68875 316.110303,184.365729 C316.110303,190.673484 314.082608,195.629502 310.027157,199.233933 C305.971707,202.838364 301.285479,204.640553 295.968332,204.640553 Z" id="?"></path>
            </g>
        </g>
    </g>
</svg>