<?xml version="1.0" encoding="utf-8"?>
<!-- Generator: Adobe Illustrator 23.0.1, SVG Export Plug-In . SVG Version: 6.00 Build 0)  -->
<svg version="1.1" id="Layer_1" xmlns="http://www.w3.org/2000/svg" xmlns:xlink="http://www.w3.org/1999/xlink" x="0px" y="0px"
	 viewBox="0 0 361 111" style="enable-background:new 0 0 361 111;" xml:space="preserve">
<style type="text/css">
	.st0{fill:none;}
	.st1{fill:#60C3B1;}
	.st2{fill:#5CB7A6;}
	.st3{fill:none;stroke:#010101;stroke-width:1.8939;stroke-miterlimit:10;}
	.st4{fill:#51998B;}
	.st5{fill:#565656;}
	.st6{fill:#787878;}
</style>
<g>
	<rect x="-44" y="-35.9" class="st0" width="449.8" height="182.9"/>
	<g>
		<g>
			<g>
				<path class="st1" d="M17.7,45.7l1.1-2.9c3.5-9.9,8.3-21.9,11-22.5l0.3,0l52.9,0c2.7,0.6,7.4,12.6,11,22.5l1,2.9l-2.8-1.3
					c-2-0.7-22.1-1.1-35.8-1.2c-13.8,0.1-34.1,0.5-35.9,1.2L17.7,45.7z M30.3,22.8c-1.5,1.3-5.3,10.3-8.4,18.8
					c7.7-0.8,29.6-1,34.5-1c4.9,0,26.7,0.2,34.3,1c-3.1-8.5-7-17.5-8.5-18.8H30.3z M82.2,22.7L82.2,22.7L82.2,22.7z M30.5,22.7"/>
			</g>
			<path class="st2" d="M22.1,89.2v2.4c0,1.4-1.1,2.5-2.4,2.5h-6.4c-1.3,0-2.4-1.1-2.4-2.5V70.6"/>
			<path class="st2" d="M90.4,89.2v2.4c0,1.4,1.1,2.5,2.4,2.5h6.4c1.3,0,2.4-1.1,2.4-2.5V70.6"/>
			<polyline class="st1" points="17.9,40.9 18.9,43.3 16.1,45.5 15.7,42.7 			"/>
			<polyline class="st1" points="94.8,41 93.9,43.5 96.6,45.6 97,42.8 			"/>
			<path class="st3" d="M56.3,85.4"/>
			<path class="st1" d="M101,52.1c-2.4-5.9-7.4-8.8-7.4-8.8c-2.3-1-37.4-1.5-37.4-1.5s-35.1,0.5-37.4,1.5c0,0-5,3-7.4,8.8
				c-1.8,4.1-2.7,11.1,0,21.7c1.5,5.9,3.4,8.7,4.9,10L95.9,84c1.7-1.1,3.5-3.5,5.2-10.2C103.7,63.2,102.9,56.2,101,52.1z M20.5,81
				c-1.9,0-3.4-1.5-3.4-3.4c0-1.9,1.5-3.4,3.4-3.4c1.9,0,3.4,1.5,3.4,3.4C23.9,79.5,22.4,81,20.5,81z M26.3,56.4
				c-0.3,3.7-3.2,6.5-6.4,6.2c-3.2-0.3-5.5-3.5-5.2-7.2c0.3-3.7,3.2-6.5,6.4-6.2C24.3,49.5,26.6,52.7,26.3,56.4z M92.1,81.2
				c-1.9,0-3.4-1.5-3.4-3.4c0-1.9,1.5-3.4,3.4-3.4c1.9,0,3.4,1.5,3.4,3.4C95.5,79.7,94,81.2,92.1,81.2z M93,62.6
				c-3.2,0.3-6.1-2.5-6.4-6.2c-0.3-3.7,2-6.9,5.2-7.2c3.2-0.3,6.1,2.5,6.4,6.2C98.5,59,96.2,62.3,93,62.6z"/>
			<path class="st1" d="M18.3,39.3c0,2.1-2.1,3.8-4.7,3.8c-2.6,0-4.7-1.7-4.7-3.8c0-2.1,2.1-3.8,4.7-3.8
				C16.2,35.4,18.3,37.1,18.3,39.3z"/>
			<path class="st1" d="M94.4,39.4c0,2.1,2.1,3.8,4.7,3.8c2.6,0,4.7-1.7,4.7-3.8c0-2.1-2.1-3.8-4.7-3.8
				C96.5,35.6,94.4,37.3,94.4,39.4z"/>
			<path class="st1" d="M59.8,17.1c0,0-12.3,0-19.5,0c-7.2,0-11.2,3.8-11.2,3.8h54.4c0,0-4-3.8-11.2-3.8c-7.2,0-19.5,0-19.5,0"/>
			<path class="st3" d="M56.2,85.5"/>
			<path class="st4" d="M83.3,62.2c0,0-4.2-5.8-12.6-5.8c-7.8,0-13.7,0-14.5,0c0,0,0,0-0.1,0c-0.7,0-6.7,0-14.5,0
				c-8.3,0-12.6,5.8-12.6,5.8c-5.5,6.2,4,5.8,4,5.8h23h0.1h23C79.2,68,88.8,68.4,83.3,62.2z"/>
			<path class="st4" d="M99.1,86.7c0,1.4-1.1,2.5-2.5,2.5H16c-1.4,0-2.5-1.1-2.5-2.5v-0.7c0-1.4,1.1-2.5,2.5-2.5h80.6
				c1.4,0,2.5,1.1,2.5,2.5V86.7z"/>
		</g>
		<g>
			<path class="st4" d="M147.5,36.6c-1.8,0-3.3,0.4-4.5,1.2c-1.2,0.8-2.2,1.9-3,3.2c-0.8,1.3-1.3,2.7-1.6,4.3
				c-0.3,1.5-0.5,3.1-0.5,4.6c0,1.5,0.2,3,0.5,4.5c0.3,1.5,0.8,2.9,1.5,4.1c0.7,1.2,1.7,2.2,2.9,3c1.2,0.8,2.7,1.2,4.4,1.2
				c2.7,0,4.7-0.7,6.2-2.2c1.4-1.5,2.3-3.5,2.7-6H167c-0.7,5.4-2.8,9.5-6.3,12.4c-3.5,2.8-7.9,4.3-13.3,4.3c-3,0-5.8-0.5-8.4-1.5
				c-2.5-1-4.7-2.5-6.5-4.3c-1.8-1.8-3.2-4-4.2-6.6c-1-2.5-1.5-5.3-1.5-8.4c0-3.2,0.5-6.1,1.4-8.8c0.9-2.7,2.3-5,4.1-7
				c1.8-2,4-3.5,6.5-4.6c2.6-1.1,5.5-1.7,8.8-1.7c2.4,0,4.7,0.3,7,0.9c2.2,0.6,4.2,1.6,6,2.9c1.8,1.3,3.2,2.9,4.3,4.8
				c1.1,1.9,1.7,4.2,1.9,6.8h-10.9C155,39,152.3,36.6,147.5,36.6z"/>
			<path class="st4" d="M168.8,41.8c0.2-2.6,0.8-4.8,2-6.5c1.2-1.7,2.6-3.1,4.4-4.2c1.8-1,3.8-1.8,6-2.2c2.2-0.4,4.5-0.7,6.7-0.7
				c2,0,4.1,0.1,6.2,0.4c2.1,0.3,4,0.9,5.7,1.7c1.7,0.8,3.2,2,4.3,3.5c1.1,1.5,1.7,3.5,1.7,5.9V61c0,1.8,0.1,3.6,0.3,5.3
				c0.2,1.7,0.6,2.9,1.1,3.8h-11.3c-0.2-0.6-0.4-1.3-0.5-1.9c-0.1-0.7-0.2-1.3-0.3-2c-1.8,1.8-3.9,3.1-6.3,3.9
				c-2.4,0.7-4.9,1.1-7.4,1.1c-1.9,0-3.8-0.2-5.4-0.7c-1.7-0.5-3.2-1.2-4.4-2.2c-1.3-1-2.2-2.3-3-3.8c-0.7-1.5-1.1-3.3-1.1-5.4
				c0-2.3,0.4-4.2,1.2-5.7c0.8-1.5,1.9-2.7,3.2-3.6c1.3-0.9,2.8-1.6,4.4-2c1.7-0.4,3.3-0.8,5-1.1c1.7-0.3,3.3-0.5,5-0.6
				c1.6-0.2,3.1-0.4,4.3-0.7c1.3-0.3,2.3-0.8,3-1.4c0.7-0.6,1.1-1.5,1-2.6c0-1.2-0.2-2.2-0.6-2.9c-0.4-0.7-0.9-1.3-1.6-1.7
				c-0.7-0.4-1.4-0.7-2.3-0.8c-0.9-0.1-1.8-0.2-2.8-0.2c-2.2,0-3.9,0.5-5.2,1.4c-1.3,0.9-2,2.5-2.2,4.7H168.8z M194.7,50.1
				c-0.5,0.4-1.1,0.7-1.8,1c-0.7,0.2-1.5,0.4-2.3,0.6c-0.8,0.2-1.7,0.3-2.6,0.4c-0.9,0.1-1.8,0.2-2.7,0.4c-0.8,0.2-1.7,0.4-2.5,0.6
				c-0.8,0.3-1.5,0.6-2.1,1.1c-0.6,0.4-1.1,1-1.5,1.7c-0.4,0.7-0.6,1.5-0.6,2.6c0,1,0.2,1.8,0.6,2.5c0.4,0.7,0.9,1.2,1.5,1.6
				c0.6,0.4,1.4,0.7,2.2,0.8c0.8,0.2,1.7,0.2,2.6,0.2c2.2,0,3.9-0.4,5.1-1.1c1.2-0.7,2.1-1.6,2.7-2.6c0.6-1,0.9-2.1,1.1-3.1
				c0.1-1,0.2-1.9,0.2-2.5V50.1z"/>
			<path class="st4" d="M221.2,29.3v7.6h0.2c0.5-1.3,1.2-2.4,2.1-3.5c0.9-1.1,1.9-2,3.1-2.8c1.2-0.8,2.4-1.4,3.7-1.8
				c1.3-0.4,2.7-0.6,4.1-0.6c0.7,0,1.5,0.1,2.4,0.4V39c-0.5-0.1-1.2-0.2-1.9-0.3c-0.7-0.1-1.4-0.1-2.1-0.1c-2,0-3.8,0.3-5.2,1
				c-1.4,0.7-2.6,1.6-3.4,2.8c-0.9,1.2-1.5,2.6-1.9,4.1c-0.4,1.6-0.6,3.3-0.6,5.1V70h-11.2V29.3H221.2z"/>
			<path class="st4" d="M246.7,59.9c0.5,0.9,1.1,1.6,1.9,2.1c0.8,0.6,1.7,1,2.7,1.2c1,0.3,2.1,0.4,3.2,0.4c0.8,0,1.6-0.1,2.5-0.3
				c0.9-0.2,1.7-0.5,2.4-0.9c0.7-0.4,1.3-0.9,1.8-1.6c0.5-0.7,0.7-1.5,0.7-2.5c0-1.7-1.1-2.9-3.3-3.8c-2.2-0.8-5.3-1.7-9.3-2.5
				c-1.6-0.4-3.2-0.8-4.8-1.3c-1.5-0.5-2.9-1.2-4.1-2c-1.2-0.8-2.2-1.8-2.9-3.1c-0.7-1.2-1.1-2.7-1.1-4.5c0-2.6,0.5-4.8,1.5-6.5
				c1-1.7,2.4-3,4.1-4c1.7-1,3.6-1.7,5.7-2c2.1-0.4,4.3-0.6,6.5-0.6c2.2,0,4.3,0.2,6.4,0.6c2.1,0.4,3.9,1.1,5.6,2.1
				c1.6,1,3,2.3,4.1,4c1.1,1.7,1.7,3.7,1.9,6.3h-10.6c-0.2-2.2-1-3.6-2.4-4.4c-1.5-0.8-3.2-1.1-5.2-1.1c-0.6,0-1.3,0-2,0.1
				c-0.7,0.1-1.4,0.2-2,0.5c-0.6,0.3-1.1,0.6-1.5,1.1c-0.4,0.5-0.6,1.2-0.6,2c0,1,0.4,1.8,1.1,2.4c0.7,0.6,1.7,1.1,2.9,1.5
				c1.2,0.4,2.5,0.7,4.1,1.1c1.5,0.3,3.1,0.7,4.6,1c1.6,0.4,3.2,0.8,4.8,1.3c1.5,0.5,2.9,1.2,4.1,2.1c1.2,0.9,2.2,1.9,2.9,3.2
				c0.7,1.3,1.1,2.9,1.1,4.8c0,2.7-0.5,4.9-1.6,6.7c-1.1,1.8-2.5,3.3-4.2,4.4c-1.7,1.1-3.7,1.9-5.9,2.3c-2.2,0.4-4.5,0.7-6.8,0.7
				c-2.4,0-4.7-0.2-6.9-0.7c-2.3-0.5-4.3-1.3-6-2.4c-1.8-1.1-3.2-2.6-4.3-4.4c-1.1-1.8-1.7-4.1-1.9-6.8H246
				C246,58,246.2,59,246.7,59.9z"/>
			<path class="st5" d="M281.2,70h-0.3c-0.9-0.1-1.7-0.8-1.7-1.8V18.9c0-1,0.8-1.8,1.8-1.8h0.2h9.7c14.6,0,26.5,12,26.5,26.6
				c0,14.6-11.9,26.4-26.5,26.4H281.2z M291,66.3c12.6,0,22.8-10.1,22.8-22.7c0-12.6-10.2-22.8-22.8-22.8h-8v45.5H291z"/>
			<path class="st5" d="M320.8,18.9c0-1,0.8-1.8,1.8-1.8h0.2h11.6c7.3,0,13.2,5.9,13.2,13.2c0,4.2-2,7.9-5.1,10.3
				c6,2,10.4,7.6,10.4,14.3c0,8.4-6.8,15.1-15.1,15.1h-14.9h-0.2h-0.1c-1,0-1.7-0.8-1.7-1.8V18.9z M334.4,39.7
				c5.2,0,9.5-4.2,9.5-9.4c0-5.3-4.2-9.5-9.5-9.5h-9.9v18.9H334.4z M337.7,66.3c6.3,0,11.3-5.1,11.4-11.4
				c-0.1-6.3-5.1-11.4-11.4-11.4h-13.2v22.8H337.7z"/>
			<g>
				<path class="st6" d="M169.2,89.7v0.6H165v-0.6h0.1c0.2,0,0.3,0,0.5,0c0.2,0,0.3-0.1,0.4-0.2c0.1-0.1,0.2-0.2,0.3-0.3
					c0.1-0.1,0.1-0.3,0.1-0.6v-4.8c0-0.2,0-0.4-0.1-0.5c-0.1-0.1-0.2-0.2-0.3-0.3c-0.1-0.1-0.3-0.1-0.4-0.2c-0.2,0-0.3,0-0.5,0h0
					v-0.6h2.5l0.2,1.3h0.1c0.2-0.3,0.3-0.5,0.5-0.7c0.2-0.2,0.4-0.3,0.6-0.4c0.2-0.1,0.4-0.2,0.6-0.2c0.2,0,0.5-0.1,0.7-0.1
					c0.4,0,0.8,0.1,1.1,0.2c0.3,0.1,0.6,0.3,0.8,0.5c0.2,0.2,0.4,0.6,0.5,0.9c0.1,0.4,0.2,0.8,0.2,1.4v3.7c0,0.2,0,0.4,0.1,0.6
					c0.1,0.1,0.1,0.3,0.2,0.3c0.1,0.1,0.2,0.1,0.4,0.2c0.1,0,0.3,0,0.5,0h0.1v0.6h-2.7v-5.3c0-0.3,0-0.6-0.1-0.9
					c-0.1-0.3-0.2-0.5-0.3-0.7c-0.1-0.2-0.3-0.3-0.5-0.4c-0.2-0.1-0.5-0.1-0.8-0.1c-0.4,0-0.6,0.1-0.9,0.2c-0.2,0.1-0.4,0.3-0.6,0.6
					c-0.1,0.2-0.3,0.5-0.3,0.8c-0.1,0.3-0.1,0.6-0.1,1v3.3c0,0.2,0,0.4,0.1,0.5c0.1,0.1,0.2,0.2,0.3,0.3c0.1,0.1,0.3,0.1,0.4,0.1
					C168.8,89.7,169,89.7,169.2,89.7L169.2,89.7z"/>
				<path class="st6" d="M182.8,86.2c0,1.5-0.3,2.5-0.9,3.2c-0.6,0.7-1.5,1.1-2.7,1.1c-0.6,0-1.1-0.1-1.5-0.3
					c-0.4-0.2-0.8-0.4-1.1-0.8c-0.3-0.4-0.5-0.8-0.7-1.3c-0.2-0.5-0.2-1.2-0.2-1.9c0-1.4,0.3-2.5,0.9-3.2c0.6-0.7,1.5-1.1,2.7-1.1
					c0.6,0,1.1,0.1,1.5,0.3c0.4,0.2,0.8,0.4,1.1,0.8c0.3,0.4,0.5,0.8,0.7,1.3C182.7,84.9,182.8,85.5,182.8,86.2z M177.1,86.2
					c0,0.6,0,1.1,0.1,1.5c0.1,0.4,0.2,0.8,0.4,1.1c0.2,0.3,0.4,0.5,0.7,0.7c0.3,0.2,0.6,0.2,1,0.2s0.7-0.1,1-0.2
					c0.3-0.2,0.5-0.4,0.6-0.7c0.2-0.3,0.3-0.7,0.4-1.1c0.1-0.4,0.1-0.9,0.1-1.5c0-0.6,0-1.1-0.1-1.5c-0.1-0.4-0.2-0.8-0.4-1.1
					c-0.2-0.3-0.4-0.5-0.7-0.7c-0.3-0.1-0.6-0.2-1-0.2c-0.4,0-0.7,0.1-1,0.2c-0.3,0.1-0.5,0.4-0.6,0.7c-0.2,0.3-0.3,0.7-0.4,1.1
					C177.1,85.2,177.1,85.7,177.1,86.2z"/>
				<path class="st6" d="M185,89.4c0-0.2,0-0.4,0.1-0.5c0.1-0.1,0.1-0.2,0.2-0.3c0.1-0.1,0.2-0.1,0.3-0.2c0.1,0,0.2-0.1,0.4-0.1
					c0.1,0,0.3,0,0.4,0.1c0.1,0,0.2,0.1,0.3,0.2c0.1,0.1,0.2,0.2,0.2,0.3c0.1,0.1,0.1,0.3,0.1,0.5c0,0.2,0,0.4-0.1,0.5
					c-0.1,0.1-0.1,0.2-0.2,0.3c-0.1,0.1-0.2,0.1-0.3,0.2c-0.1,0-0.2,0.1-0.4,0.1c-0.1,0-0.3,0-0.4-0.1c-0.1,0-0.2-0.1-0.3-0.2
					c-0.1-0.1-0.2-0.2-0.2-0.3C185.1,89.8,185,89.6,185,89.4z"/>
				<path class="st6" d="M189.9,90.4v-0.6h1c0.2,0,0.3,0,0.5,0c0.2,0,0.3-0.1,0.4-0.2c0.1-0.1,0.2-0.2,0.3-0.3
					c0.1-0.1,0.1-0.3,0.1-0.6v-8.1c-0.2,0.2-0.4,0.5-0.6,0.7c-0.2,0.2-0.3,0.4-0.5,0.5c-0.2,0.1-0.3,0.3-0.5,0.3
					c-0.2,0.1-0.3,0.1-0.5,0.1c-0.2,0-0.4-0.1-0.6-0.2c-0.1-0.2-0.2-0.4-0.2-0.6c0.2,0,0.3-0.1,0.5-0.1c0.2-0.1,0.3-0.1,0.5-0.2
					c0.2-0.1,0.4-0.2,0.6-0.3c0.2-0.1,0.4-0.3,0.7-0.5l1.1-0.8h1v9.3c0,0.2,0,0.4,0.1,0.6c0.1,0.1,0.2,0.3,0.3,0.3
					c0.1,0.1,0.3,0.1,0.4,0.2c0.2,0,0.3,0,0.5,0h0.8v0.6H189.9z"/>
				<path class="st6" d="M205.7,90.5c-0.5,0-1-0.1-1.4-0.2c-0.4-0.2-0.8-0.4-1.1-0.8c-0.3-0.3-0.6-0.8-0.7-1.3
					c-0.2-0.5-0.3-1.2-0.3-1.9c0-0.8,0.1-1.5,0.3-2.1c0.2-0.6,0.4-1,0.7-1.3c0.3-0.3,0.7-0.6,1.1-0.7c0.4-0.1,0.9-0.2,1.4-0.2
					c0.3,0,0.6,0,1,0.1c0.3,0.1,0.6,0.2,0.9,0.3c0.3,0.1,0.5,0.3,0.6,0.5c0.2,0.2,0.2,0.4,0.2,0.7c0,0.4-0.1,0.6-0.3,0.8
					c-0.2,0.1-0.6,0.2-1,0.2c0-0.2,0-0.5-0.1-0.7c0-0.2-0.1-0.4-0.2-0.6c-0.1-0.2-0.2-0.3-0.4-0.4c-0.2-0.1-0.4-0.1-0.6-0.1
					c-0.3,0-0.6,0.1-0.8,0.2c-0.2,0.1-0.4,0.3-0.6,0.6c-0.2,0.3-0.3,0.6-0.4,1.1c-0.1,0.5-0.1,1-0.1,1.7c0,1.1,0.2,1.9,0.5,2.5
					c0.4,0.5,1,0.8,1.8,0.8c0.5,0,0.9-0.1,1.3-0.3c0.4-0.2,0.6-0.5,0.8-0.8c0.1,0.1,0.1,0.1,0.2,0.2c0.1,0.1,0.1,0.2,0.1,0.4
					c0,0.2-0.1,0.4-0.2,0.5c-0.1,0.2-0.3,0.3-0.5,0.5c-0.2,0.1-0.5,0.3-0.8,0.3C206.6,90.5,206.2,90.5,205.7,90.5z"/>
				<path class="st6" d="M213.3,82.7c-0.3,0-0.5,0-0.7,0.1c-0.2,0.1-0.3,0.2-0.4,0.4c-0.1,0.2-0.2,0.3-0.2,0.5
					c0,0.2-0.1,0.4-0.1,0.7c-0.4,0-0.8-0.1-1-0.2c-0.2-0.1-0.3-0.4-0.3-0.8c0-0.3,0.1-0.5,0.2-0.7c0.1-0.2,0.3-0.3,0.6-0.5
					c0.3-0.1,0.6-0.2,0.9-0.3c0.3-0.1,0.7-0.1,1.1-0.1c0.5,0,0.9,0,1.2,0.1c0.4,0.1,0.6,0.2,0.9,0.5c0.2,0.2,0.4,0.5,0.5,0.8
					c0.1,0.3,0.2,0.8,0.2,1.3v4c0,0.2,0,0.4,0.1,0.5c0,0.1,0.1,0.3,0.2,0.3c0.1,0.1,0.2,0.1,0.3,0.2c0.1,0,0.3,0.1,0.4,0.1h0v0.6
					h-2.1l-0.2-1.3h-0.1c-0.2,0.2-0.3,0.4-0.5,0.6c-0.2,0.2-0.3,0.3-0.5,0.5c-0.2,0.1-0.4,0.2-0.6,0.3c-0.2,0.1-0.5,0.1-0.8,0.1
					c-0.3,0-0.7,0-1-0.1c-0.3-0.1-0.5-0.2-0.8-0.5c-0.2-0.2-0.4-0.5-0.5-0.8c-0.1-0.3-0.2-0.7-0.2-1.1c0-0.8,0.3-1.4,0.9-1.8
					c0.6-0.4,1.5-0.6,2.7-0.6l1.3,0v-0.9c0-0.3,0-0.5,0-0.8c0-0.2-0.1-0.4-0.2-0.6c-0.1-0.2-0.2-0.3-0.4-0.4
					C213.9,82.8,213.6,82.7,213.3,82.7z M211.4,88.1c0,0.5,0.1,0.8,0.3,1.1c0.2,0.2,0.5,0.4,0.9,0.4c0.3,0,0.6-0.1,0.9-0.2
					c0.3-0.1,0.5-0.2,0.6-0.4c0.2-0.2,0.3-0.4,0.4-0.7c0.1-0.3,0.1-0.6,0.1-0.9v-1.3l-1,0c-0.4,0-0.8,0.1-1.1,0.2
					c-0.3,0.1-0.5,0.2-0.7,0.4c-0.2,0.2-0.3,0.4-0.4,0.6C211.4,87.6,211.4,87.8,211.4,88.1z"/>
				<path class="st6" d="M223,90.4h-4.5v-0.6h0c0.2,0,0.3,0,0.5,0c0.2,0,0.3-0.1,0.4-0.2c0.1-0.1,0.2-0.2,0.3-0.3
					c0.1-0.1,0.1-0.3,0.1-0.6v-4.8c0-0.2,0-0.4-0.1-0.5c-0.1-0.1-0.2-0.2-0.3-0.3c-0.1-0.1-0.3-0.1-0.4-0.2c-0.2,0-0.3,0-0.5,0h0
					v-0.6h2.4l0.3,1.5h0.1c0.1-0.2,0.2-0.5,0.3-0.7c0.1-0.2,0.2-0.4,0.4-0.5c0.2-0.2,0.3-0.3,0.6-0.4c0.2-0.1,0.5-0.1,0.9-0.1
					c0.6,0,1,0.1,1.3,0.3c0.3,0.2,0.4,0.5,0.4,0.8c0,0.2,0,0.3-0.1,0.4c-0.1,0.1-0.1,0.3-0.3,0.4c-0.1,0.1-0.3,0.2-0.4,0.2
					c-0.2,0.1-0.4,0.1-0.7,0.1c0-0.4-0.1-0.7-0.2-0.9c-0.1-0.2-0.3-0.3-0.6-0.3c-0.2,0-0.4,0.1-0.5,0.2c-0.2,0.1-0.3,0.3-0.4,0.4
					c-0.1,0.2-0.2,0.4-0.3,0.6c-0.1,0.2-0.1,0.5-0.2,0.7c0,0.2-0.1,0.5-0.1,0.7c0,0.2,0,0.5,0,0.7v2.4c0,0.2,0,0.4,0.1,0.5
					c0.1,0.1,0.2,0.2,0.3,0.3c0.1,0.1,0.3,0.1,0.4,0.1c0.2,0,0.3,0,0.5,0h0.4V90.4z"/>
				<path class="st6" d="M232.9,90.5c-0.4,0-0.7,0-1.1-0.1c-0.3-0.1-0.6-0.2-0.8-0.3c-0.2-0.1-0.4-0.3-0.5-0.5
					c-0.1-0.2-0.2-0.4-0.2-0.7c0-0.2,0-0.4,0.1-0.5c0.1-0.1,0.2-0.2,0.2-0.3c0.1-0.1,0.2-0.1,0.3-0.2c0.1,0,0.2,0,0.3,0
					c0,0.3,0,0.5,0.1,0.8c0.1,0.2,0.1,0.4,0.3,0.6c0.1,0.2,0.3,0.3,0.5,0.4c0.2,0.1,0.5,0.2,0.8,0.2c0.3,0,0.5,0,0.7-0.1
					c0.2-0.1,0.4-0.2,0.5-0.3c0.1-0.1,0.3-0.3,0.3-0.4c0.1-0.2,0.1-0.4,0.1-0.6c0-0.2,0-0.4-0.1-0.5c-0.1-0.1-0.2-0.3-0.3-0.4
					c-0.1-0.1-0.3-0.2-0.6-0.4c-0.2-0.1-0.6-0.3-0.9-0.4c-0.4-0.2-0.7-0.3-1-0.5c-0.3-0.2-0.5-0.3-0.7-0.5c-0.2-0.2-0.3-0.4-0.4-0.7
					c-0.1-0.2-0.1-0.5-0.1-0.9c0-0.4,0.1-0.7,0.2-0.9c0.1-0.3,0.3-0.5,0.6-0.7c0.3-0.2,0.6-0.3,0.9-0.4c0.4-0.1,0.8-0.1,1.2-0.1
					c0.4,0,0.7,0,1,0.1c0.3,0.1,0.5,0.2,0.7,0.3c0.2,0.1,0.3,0.3,0.4,0.5c0.1,0.2,0.1,0.4,0.1,0.5c0,0.3-0.1,0.5-0.3,0.7
					c-0.2,0.2-0.5,0.3-0.8,0.3c0-0.5-0.1-0.9-0.3-1.2c-0.2-0.3-0.6-0.4-1-0.4c-0.3,0-0.5,0-0.7,0.1c-0.2,0.1-0.3,0.1-0.5,0.3
					c-0.1,0.1-0.2,0.2-0.3,0.4c-0.1,0.2-0.1,0.3-0.1,0.5c0,0.2,0,0.4,0.1,0.5c0.1,0.1,0.2,0.3,0.3,0.4c0.2,0.1,0.4,0.2,0.6,0.4
					c0.2,0.1,0.5,0.2,0.9,0.4c0.4,0.2,0.8,0.3,1.1,0.5c0.3,0.2,0.5,0.3,0.7,0.5c0.2,0.2,0.3,0.4,0.4,0.7c0.1,0.2,0.1,0.5,0.1,0.9
					c0,0.4-0.1,0.8-0.2,1.1c-0.1,0.3-0.4,0.6-0.6,0.8c-0.3,0.2-0.6,0.4-1,0.5C233.7,90.5,233.3,90.5,232.9,90.5z"/>
				<path class="st6" d="M237.3,89.7c0.2,0,0.3,0,0.5,0c0.2,0,0.3-0.1,0.4-0.1c0.1-0.1,0.2-0.2,0.3-0.3c0.1-0.1,0.1-0.3,0.1-0.5
					v-4.9c0-0.2,0-0.4-0.1-0.5c-0.1-0.1-0.2-0.2-0.3-0.3c-0.1-0.1-0.3-0.1-0.4-0.2c-0.2,0-0.3,0-0.5,0h0v-0.6h2.8v6.5
					c0,0.2,0,0.4,0.1,0.6c0.1,0.1,0.2,0.3,0.3,0.3c0.1,0.1,0.2,0.1,0.4,0.2c0.2,0,0.3,0,0.5,0h0.2v0.6h-4.4v-0.6H237.3z M238.4,79.6
					c0-0.2,0-0.3,0.1-0.5c0-0.1,0.1-0.2,0.2-0.3c0.1-0.1,0.2-0.1,0.3-0.2c0.1,0,0.2,0,0.3,0c0.1,0,0.2,0,0.3,0
					c0.1,0,0.2,0.1,0.3,0.2c0.1,0.1,0.1,0.2,0.2,0.3c0,0.1,0.1,0.3,0.1,0.5s0,0.3-0.1,0.5c0,0.1-0.1,0.2-0.2,0.3
					c-0.1,0.1-0.2,0.1-0.3,0.2c-0.1,0-0.2,0-0.3,0c-0.1,0-0.2,0-0.3,0c-0.1,0-0.2-0.1-0.3-0.2c-0.1-0.1-0.1-0.2-0.2-0.3
					C238.4,79.9,238.4,79.8,238.4,79.6z"/>
				<path class="st6" d="M246,89.7c0.2,0,0.4,0,0.5,0c0.2,0,0.3,0,0.5-0.1v0.7c-0.1,0-0.2,0.1-0.3,0.1c-0.1,0-0.2,0.1-0.3,0.1
					c-0.1,0-0.3,0-0.4,0.1c-0.1,0-0.3,0-0.4,0c-0.4,0-0.7,0-1-0.1c-0.3-0.1-0.5-0.2-0.7-0.4c-0.2-0.2-0.3-0.4-0.4-0.7
					c-0.1-0.3-0.1-0.7-0.1-1.1V83h-1.2v-0.6c0.2,0,0.4,0,0.6-0.1c0.2-0.1,0.4-0.2,0.6-0.4c0.2-0.2,0.3-0.4,0.4-0.7
					c0.1-0.3,0.2-0.6,0.3-1h0.7v1.9h2V83h-2v5.2c0,0.5,0.1,0.9,0.3,1.2C245.3,89.6,245.6,89.7,246,89.7z"/>
				<path class="st6" d="M251.9,90.5c-0.6,0-1.1-0.1-1.5-0.3c-0.4-0.2-0.8-0.5-1.1-0.8s-0.5-0.8-0.7-1.3c-0.2-0.5-0.2-1.1-0.2-1.8
					c0-1.4,0.3-2.5,0.9-3.3c0.6-0.7,1.4-1.1,2.5-1.1c0.5,0,0.9,0.1,1.3,0.2c0.4,0.2,0.7,0.4,1,0.7c0.3,0.3,0.5,0.7,0.6,1.2
					c0.1,0.5,0.2,1,0.2,1.6v0.7h-5.2c0,0.6,0.1,1,0.2,1.5c0.1,0.4,0.3,0.7,0.4,1c0.2,0.3,0.4,0.5,0.7,0.6c0.3,0.1,0.6,0.2,1,0.2
					c0.3,0,0.5,0,0.7-0.1c0.2-0.1,0.4-0.1,0.6-0.2c0.2-0.1,0.4-0.2,0.5-0.3c0.1-0.1,0.3-0.3,0.4-0.4c0.1,0,0.1,0.1,0.2,0.2
					c0.1,0.1,0.1,0.2,0.1,0.3c0,0.2-0.1,0.3-0.2,0.5c-0.1,0.2-0.3,0.3-0.5,0.5c-0.2,0.2-0.5,0.3-0.8,0.4
					C252.8,90.5,252.4,90.5,251.9,90.5z M251.7,82.8c-0.6,0-1,0.2-1.3,0.7c-0.3,0.5-0.5,1.1-0.5,2h3.6c0-0.4,0-0.8-0.1-1.1
					c-0.1-0.3-0.2-0.6-0.3-0.9c-0.1-0.2-0.3-0.4-0.5-0.6C252.3,82.8,252,82.8,251.7,82.8z"/>
				<path class="st6" d="M260.6,89.7c0.2,0,0.3,0,0.5,0c0.2,0,0.3-0.1,0.4-0.1c0.1-0.1,0.2-0.2,0.3-0.3c0.1-0.1,0.1-0.3,0.1-0.5
					v-4.9c0-0.2,0-0.4-0.1-0.5c-0.1-0.1-0.2-0.2-0.3-0.3c-0.1-0.1-0.3-0.1-0.4-0.2c-0.2,0-0.3,0-0.5,0h0v-0.6h2.8v6.5
					c0,0.2,0,0.4,0.1,0.6c0.1,0.1,0.2,0.3,0.3,0.3c0.1,0.1,0.2,0.1,0.4,0.2c0.2,0,0.3,0,0.5,0h0.2v0.6h-4.4v-0.6H260.6z M261.7,79.6
					c0-0.2,0-0.3,0.1-0.5c0-0.1,0.1-0.2,0.2-0.3c0.1-0.1,0.2-0.1,0.3-0.2c0.1,0,0.2,0,0.3,0c0.1,0,0.2,0,0.3,0
					c0.1,0,0.2,0.1,0.3,0.2c0.1,0.1,0.1,0.2,0.2,0.3c0,0.1,0.1,0.3,0.1,0.5s0,0.3-0.1,0.5c0,0.1-0.1,0.2-0.2,0.3
					c-0.1,0.1-0.2,0.1-0.3,0.2c-0.1,0-0.2,0-0.3,0c-0.1,0-0.2,0-0.3,0c-0.1,0-0.2-0.1-0.3-0.2c-0.1-0.1-0.1-0.2-0.2-0.3
					C261.7,79.9,261.7,79.8,261.7,79.6z"/>
				<path class="st6" d="M269.8,89.7v0.6h-4.2v-0.6h0.1c0.2,0,0.3,0,0.5,0c0.2,0,0.3-0.1,0.4-0.2c0.1-0.1,0.2-0.2,0.3-0.3
					c0.1-0.1,0.1-0.3,0.1-0.6v-4.8c0-0.2,0-0.4-0.1-0.5c-0.1-0.1-0.2-0.2-0.3-0.3c-0.1-0.1-0.3-0.1-0.4-0.2c-0.2,0-0.3,0-0.5,0h0
					v-0.6h2.5l0.2,1.3h0.1c0.2-0.3,0.3-0.5,0.5-0.7c0.2-0.2,0.4-0.3,0.6-0.4c0.2-0.1,0.4-0.2,0.6-0.2c0.2,0,0.5-0.1,0.7-0.1
					c0.4,0,0.8,0.1,1.1,0.2c0.3,0.1,0.6,0.3,0.8,0.5c0.2,0.2,0.4,0.6,0.5,0.9c0.1,0.4,0.2,0.8,0.2,1.4v3.7c0,0.2,0,0.4,0.1,0.6
					c0.1,0.1,0.1,0.3,0.2,0.3c0.1,0.1,0.2,0.1,0.4,0.2c0.1,0,0.3,0,0.5,0h0.1v0.6H272v-5.3c0-0.3,0-0.6-0.1-0.9
					c-0.1-0.3-0.2-0.5-0.3-0.7c-0.1-0.2-0.3-0.3-0.5-0.4c-0.2-0.1-0.5-0.1-0.8-0.1c-0.4,0-0.6,0.1-0.9,0.2c-0.2,0.1-0.4,0.3-0.6,0.6
					c-0.1,0.2-0.3,0.5-0.3,0.8c-0.1,0.3-0.1,0.6-0.1,1v3.3c0,0.2,0,0.4,0.1,0.5c0.1,0.1,0.2,0.2,0.3,0.3c0.1,0.1,0.3,0.1,0.4,0.1
					C269.4,89.7,269.6,89.7,269.8,89.7L269.8,89.7z"/>
				<path class="st6" d="M284.1,89.7v0.6h-4.2v-0.6h0.2c0.2,0,0.3,0,0.5,0c0.1,0,0.3-0.1,0.4-0.2c0.1-0.1,0.2-0.2,0.2-0.3
					c0.1-0.1,0.1-0.3,0.1-0.6v-4.8c0-0.2,0-0.4-0.1-0.5c-0.1-0.1-0.1-0.2-0.2-0.3c-0.1-0.1-0.2-0.1-0.4-0.2c-0.1,0-0.3,0-0.5,0h0
					v-0.6h2.4l0.2,1.3h0.1c0.2-0.3,0.3-0.5,0.5-0.7c0.2-0.2,0.4-0.3,0.5-0.4c0.2-0.1,0.4-0.2,0.6-0.2c0.2,0,0.4-0.1,0.7-0.1
					c0.3,0,0.5,0,0.7,0.1c0.2,0.1,0.4,0.1,0.6,0.2c0.2,0.1,0.4,0.3,0.5,0.4c0.2,0.2,0.3,0.4,0.4,0.7h0.1c0.2-0.3,0.3-0.5,0.5-0.7
					c0.2-0.2,0.4-0.3,0.6-0.4c0.2-0.1,0.4-0.2,0.6-0.2c0.2,0,0.5-0.1,0.7-0.1c0.4,0,0.7,0.1,1.1,0.2c0.3,0.1,0.6,0.3,0.8,0.5
					c0.2,0.2,0.4,0.6,0.5,0.9c0.1,0.4,0.2,0.8,0.2,1.4v3.7c0,0.2,0,0.4,0.1,0.6c0.1,0.1,0.1,0.3,0.2,0.3c0.1,0.1,0.2,0.1,0.4,0.2
					c0.1,0,0.3,0,0.5,0h0v0.6H291v-5.3c0-0.3,0-0.6-0.1-0.9c-0.1-0.3-0.2-0.5-0.3-0.7c-0.1-0.2-0.3-0.3-0.5-0.4
					c-0.2-0.1-0.5-0.1-0.8-0.1c-0.3,0-0.6,0.1-0.8,0.2c-0.2,0.1-0.4,0.3-0.5,0.5c-0.1,0.2-0.2,0.5-0.3,0.7c-0.1,0.3-0.1,0.6-0.1,0.9
					v3.4c0,0.2,0,0.4,0.1,0.6c0.1,0.1,0.1,0.3,0.2,0.3c0.1,0.1,0.2,0.1,0.4,0.2c0.1,0,0.3,0,0.5,0h0v0.6h-2.7v-5.3
					c0-0.3,0-0.6-0.1-0.9c-0.1-0.3-0.2-0.5-0.3-0.7c-0.1-0.2-0.3-0.3-0.5-0.4c-0.2-0.1-0.5-0.1-0.8-0.1c-0.3,0-0.6,0.1-0.9,0.2
					c-0.2,0.1-0.4,0.3-0.6,0.6c-0.1,0.2-0.2,0.5-0.3,0.8c-0.1,0.3-0.1,0.6-0.1,1v3.3c0,0.2,0,0.4,0.1,0.5c0.1,0.1,0.2,0.2,0.3,0.3
					c0.1,0.1,0.3,0.1,0.4,0.1C283.7,89.7,283.9,89.7,284.1,89.7L284.1,89.7z"/>
				<path class="st6" d="M303,82.1v0.6h0c-0.2,0-0.3,0-0.4,0c-0.1,0-0.2,0.1-0.3,0.2c-0.1,0.1-0.2,0.2-0.2,0.4
					c-0.1,0.2-0.2,0.4-0.2,0.6l-2.3,6.5c-0.2,0.5-0.4,0.9-0.5,1.3c-0.2,0.4-0.3,0.7-0.5,1c-0.2,0.3-0.4,0.5-0.6,0.7
					c-0.2,0.2-0.4,0.3-0.7,0.4c-0.3,0.1-0.6,0.2-0.9,0.2c-0.3,0-0.8,0.1-1.2,0.1h-0.1v-0.7c0.5,0,1-0.1,1.4-0.2
					c0.4-0.2,0.7-0.4,1-0.6c0.3-0.3,0.5-0.6,0.7-1c0.2-0.4,0.3-0.8,0.5-1.2l-2.9-6.8c-0.1-0.2-0.1-0.3-0.2-0.4
					c-0.1-0.1-0.1-0.2-0.2-0.3c-0.1-0.1-0.2-0.1-0.3-0.1c-0.1,0-0.2,0-0.4,0h0v-0.6h3.7v0.6h0c-0.3,0-0.5,0.1-0.7,0.2
					c-0.2,0.1-0.2,0.3-0.2,0.6c0,0.1,0,0.2,0,0.3c0,0.1,0,0.2,0.1,0.3l1.1,2.8c0.1,0.2,0.1,0.4,0.2,0.6c0.1,0.2,0.2,0.4,0.2,0.6
					c0.1,0.2,0.1,0.4,0.2,0.6c0.1,0.2,0.1,0.3,0.1,0.5h0c0.1-0.2,0.1-0.5,0.2-0.8c0.1-0.3,0.2-0.7,0.3-1l1-3c0-0.1,0.1-0.2,0.1-0.4
					c0-0.1,0-0.2,0-0.3c0-0.3-0.1-0.5-0.3-0.6c-0.2-0.1-0.4-0.2-0.8-0.2h0v-0.6H303z"/>
				<path class="st6" d="M307.3,82.7c-0.3,0-0.5,0-0.7,0.1c-0.2,0.1-0.3,0.2-0.4,0.4c-0.1,0.2-0.2,0.3-0.2,0.5
					c0,0.2-0.1,0.4-0.1,0.7c-0.4,0-0.8-0.1-1-0.2c-0.2-0.1-0.3-0.4-0.3-0.8c0-0.3,0.1-0.5,0.2-0.7c0.1-0.2,0.3-0.3,0.6-0.5
					c0.3-0.1,0.6-0.2,0.9-0.3c0.3-0.1,0.7-0.1,1.1-0.1c0.5,0,0.9,0,1.2,0.1c0.4,0.1,0.6,0.2,0.9,0.5c0.2,0.2,0.4,0.5,0.5,0.8
					c0.1,0.3,0.2,0.8,0.2,1.3v4c0,0.2,0,0.4,0.1,0.5c0,0.1,0.1,0.3,0.2,0.3c0.1,0.1,0.2,0.1,0.3,0.2c0.1,0,0.3,0.1,0.4,0.1h0v0.6
					h-2.1l-0.2-1.3h-0.1c-0.2,0.2-0.3,0.4-0.5,0.6c-0.2,0.2-0.3,0.3-0.5,0.5c-0.2,0.1-0.4,0.2-0.6,0.3c-0.2,0.1-0.5,0.1-0.8,0.1
					c-0.3,0-0.7,0-1-0.1c-0.3-0.1-0.5-0.2-0.8-0.5c-0.2-0.2-0.4-0.5-0.5-0.8c-0.1-0.3-0.2-0.7-0.2-1.1c0-0.8,0.3-1.4,0.9-1.8
					c0.6-0.4,1.5-0.6,2.7-0.6l1.3,0v-0.9c0-0.3,0-0.5,0-0.8c0-0.2-0.1-0.4-0.2-0.6c-0.1-0.2-0.2-0.3-0.4-0.4
					C307.9,82.8,307.6,82.7,307.3,82.7z M305.4,88.1c0,0.5,0.1,0.8,0.3,1.1c0.2,0.2,0.5,0.4,0.9,0.4c0.3,0,0.6-0.1,0.9-0.2
					c0.3-0.1,0.5-0.2,0.6-0.4c0.2-0.2,0.3-0.4,0.4-0.7c0.1-0.3,0.1-0.6,0.1-0.9v-1.3l-1,0c-0.4,0-0.8,0.1-1.1,0.2
					c-0.3,0.1-0.5,0.2-0.7,0.4c-0.2,0.2-0.3,0.4-0.4,0.6C305.5,87.6,305.4,87.8,305.4,88.1z"/>
				<path class="st6" d="M316.6,89.7v0.6h-4.2v-0.6h0.1c0.2,0,0.3,0,0.5,0c0.2,0,0.3-0.1,0.4-0.2c0.1-0.1,0.2-0.2,0.3-0.3
					c0.1-0.1,0.1-0.3,0.1-0.6v-4.8c0-0.2,0-0.4-0.1-0.5c-0.1-0.1-0.2-0.2-0.3-0.3c-0.1-0.1-0.3-0.1-0.4-0.2c-0.2,0-0.3,0-0.5,0h0
					v-0.6h2.5l0.2,1.3h0.1c0.2-0.3,0.3-0.5,0.5-0.7c0.2-0.2,0.4-0.3,0.6-0.4c0.2-0.1,0.4-0.2,0.6-0.2c0.2,0,0.5-0.1,0.7-0.1
					c0.4,0,0.8,0.1,1.1,0.2c0.3,0.1,0.6,0.3,0.8,0.5c0.2,0.2,0.4,0.6,0.5,0.9c0.1,0.4,0.2,0.8,0.2,1.4v3.7c0,0.2,0,0.4,0.1,0.6
					c0.1,0.1,0.1,0.3,0.2,0.3c0.1,0.1,0.2,0.1,0.4,0.2c0.1,0,0.3,0,0.5,0h0.1v0.6h-2.7v-5.3c0-0.3,0-0.6-0.1-0.9
					c-0.1-0.3-0.2-0.5-0.3-0.7c-0.1-0.2-0.3-0.3-0.5-0.4c-0.2-0.1-0.5-0.1-0.8-0.1c-0.4,0-0.6,0.1-0.9,0.2c-0.2,0.1-0.4,0.3-0.6,0.6
					c-0.1,0.2-0.3,0.5-0.3,0.8c-0.1,0.3-0.1,0.6-0.1,1v3.3c0,0.2,0,0.4,0.1,0.5c0.1,0.1,0.2,0.2,0.3,0.3c0.1,0.1,0.3,0.1,0.4,0.1
					C316.2,89.7,316.4,89.7,316.6,89.7L316.6,89.7z"/>
				<path class="st6" d="M326.8,89.7v0.6h-4.2v-0.6h0.2c0.2,0,0.3,0,0.5,0c0.1,0,0.3-0.1,0.4-0.2c0.1-0.1,0.2-0.2,0.2-0.3
					c0.1-0.1,0.1-0.3,0.1-0.6v-4.8c0-0.2,0-0.4-0.1-0.5c-0.1-0.1-0.1-0.2-0.2-0.3c-0.1-0.1-0.2-0.1-0.4-0.2s-0.3,0-0.5,0h0v-0.6h2.4
					l0.2,1.3h0.1c0.2-0.3,0.3-0.5,0.5-0.7c0.2-0.2,0.4-0.3,0.5-0.4c0.2-0.1,0.4-0.2,0.6-0.2c0.2,0,0.4-0.1,0.7-0.1
					c0.3,0,0.5,0,0.7,0.1c0.2,0.1,0.4,0.1,0.6,0.2c0.2,0.1,0.4,0.3,0.5,0.4c0.2,0.2,0.3,0.4,0.4,0.7h0.1c0.2-0.3,0.3-0.5,0.5-0.7
					c0.2-0.2,0.4-0.3,0.6-0.4c0.2-0.1,0.4-0.2,0.6-0.2c0.2,0,0.5-0.1,0.7-0.1c0.4,0,0.7,0.1,1.1,0.2c0.3,0.1,0.6,0.3,0.8,0.5
					c0.2,0.2,0.4,0.6,0.5,0.9c0.1,0.4,0.2,0.8,0.2,1.4v3.7c0,0.2,0,0.4,0.1,0.6c0.1,0.1,0.1,0.3,0.2,0.3c0.1,0.1,0.2,0.1,0.4,0.2
					c0.1,0,0.3,0,0.5,0h0v0.6h-2.7v-5.3c0-0.3,0-0.6-0.1-0.9c-0.1-0.3-0.2-0.5-0.3-0.7c-0.1-0.2-0.3-0.3-0.5-0.4
					c-0.2-0.1-0.5-0.1-0.8-0.1c-0.3,0-0.6,0.1-0.8,0.2c-0.2,0.1-0.4,0.3-0.5,0.5c-0.1,0.2-0.2,0.5-0.3,0.7c-0.1,0.3-0.1,0.6-0.1,0.9
					v3.4c0,0.2,0,0.4,0.1,0.6c0.1,0.1,0.1,0.3,0.2,0.3c0.1,0.1,0.2,0.1,0.4,0.2c0.1,0,0.3,0,0.5,0h0v0.6h-2.7v-5.3
					c0-0.3,0-0.6-0.1-0.9c-0.1-0.3-0.2-0.5-0.3-0.7c-0.1-0.2-0.3-0.3-0.5-0.4c-0.2-0.1-0.5-0.1-0.8-0.1c-0.3,0-0.6,0.1-0.9,0.2
					c-0.2,0.1-0.4,0.3-0.6,0.6c-0.1,0.2-0.2,0.5-0.3,0.8c-0.1,0.3-0.1,0.6-0.1,1v3.3c0,0.2,0,0.4,0.1,0.5c0.1,0.1,0.2,0.2,0.3,0.3
					c0.1,0.1,0.3,0.1,0.4,0.1C326.4,89.7,326.5,89.7,326.8,89.7L326.8,89.7z"/>
				<path class="st6" d="M341.1,82.7c-0.3,0-0.5,0-0.7,0.1c-0.2,0.1-0.3,0.2-0.4,0.4c-0.1,0.2-0.2,0.3-0.2,0.5
					c0,0.2-0.1,0.4-0.1,0.7c-0.4,0-0.8-0.1-1-0.2c-0.2-0.1-0.3-0.4-0.3-0.8c0-0.3,0.1-0.5,0.2-0.7c0.1-0.2,0.3-0.3,0.6-0.5
					c0.3-0.1,0.6-0.2,0.9-0.3c0.3-0.1,0.7-0.1,1.1-0.1c0.5,0,0.9,0,1.2,0.1c0.4,0.1,0.6,0.2,0.9,0.5c0.2,0.2,0.4,0.5,0.5,0.8
					c0.1,0.3,0.2,0.8,0.2,1.3v4c0,0.2,0,0.4,0.1,0.5c0,0.1,0.1,0.3,0.2,0.3c0.1,0.1,0.2,0.1,0.3,0.2c0.1,0,0.3,0.1,0.4,0.1h0v0.6
					h-2.1l-0.2-1.3h-0.1c-0.2,0.2-0.3,0.4-0.5,0.6c-0.2,0.2-0.3,0.3-0.5,0.5c-0.2,0.1-0.4,0.2-0.6,0.3c-0.2,0.1-0.5,0.1-0.8,0.1
					c-0.3,0-0.7,0-1-0.1c-0.3-0.1-0.5-0.2-0.8-0.5c-0.2-0.2-0.4-0.5-0.5-0.8c-0.1-0.3-0.2-0.7-0.2-1.1c0-0.8,0.3-1.4,0.9-1.8
					c0.6-0.4,1.5-0.6,2.7-0.6l1.3,0v-0.9c0-0.3,0-0.5,0-0.8c0-0.2-0.1-0.4-0.2-0.6c-0.1-0.2-0.2-0.3-0.4-0.4
					C341.7,82.8,341.4,82.7,341.1,82.7z M339.2,88.1c0,0.5,0.1,0.8,0.3,1.1c0.2,0.2,0.5,0.4,0.9,0.4c0.3,0,0.6-0.1,0.9-0.2
					c0.3-0.1,0.5-0.2,0.6-0.4c0.2-0.2,0.3-0.4,0.4-0.7c0.1-0.3,0.1-0.6,0.1-0.9v-1.3l-1,0c-0.4,0-0.8,0.1-1.1,0.2
					c-0.3,0.1-0.5,0.2-0.7,0.4c-0.2,0.2-0.3,0.4-0.4,0.6C339.3,87.6,339.2,87.8,339.2,88.1z"/>
				<path class="st6" d="M350.8,90.4h-4.5v-0.6h0c0.2,0,0.3,0,0.5,0c0.2,0,0.3-0.1,0.4-0.2c0.1-0.1,0.2-0.2,0.3-0.3
					c0.1-0.1,0.1-0.3,0.1-0.6v-4.8c0-0.2,0-0.4-0.1-0.5c-0.1-0.1-0.2-0.2-0.3-0.3c-0.1-0.1-0.3-0.1-0.4-0.2c-0.2,0-0.3,0-0.5,0h0
					v-0.6h2.4l0.3,1.5h0.1c0.1-0.2,0.2-0.5,0.3-0.7c0.1-0.2,0.2-0.4,0.4-0.5c0.2-0.2,0.3-0.3,0.6-0.4c0.2-0.1,0.5-0.1,0.9-0.1
					c0.6,0,1,0.1,1.3,0.3c0.3,0.2,0.4,0.5,0.4,0.8c0,0.2,0,0.3-0.1,0.4c-0.1,0.1-0.1,0.3-0.3,0.4c-0.1,0.1-0.3,0.2-0.4,0.2
					c-0.2,0.1-0.4,0.1-0.7,0.1c0-0.4-0.1-0.7-0.2-0.9c-0.1-0.2-0.3-0.3-0.6-0.3c-0.2,0-0.4,0.1-0.5,0.2c-0.2,0.1-0.3,0.3-0.4,0.4
					c-0.1,0.2-0.2,0.4-0.3,0.6c-0.1,0.2-0.1,0.5-0.2,0.7c0,0.2-0.1,0.5-0.1,0.7c0,0.2,0,0.5,0,0.7v2.4c0,0.2,0,0.4,0.1,0.5
					c0.1,0.1,0.2,0.2,0.3,0.3c0.1,0.1,0.3,0.1,0.4,0.1c0.2,0,0.3,0,0.5,0h0.4V90.4z"/>
			</g>
		</g>
		<rect x="9" y="17.1" class="st0" width="343.9" height="77"/>
	</g>
</g>
</svg>
