<?xml version="1.0" encoding="utf-8"?>
<!-- Generator: Adobe Illustrator 23.0.1, SVG Export Plug-In . SVG Version: 6.00 Build 0)  -->
<svg version="1.1" id="Layer_1" xmlns="http://www.w3.org/2000/svg" xmlns:xlink="http://www.w3.org/1999/xlink" x="0px" y="0px"
	 viewBox="0 0 24 24" style="enable-background:new 0 0 24 24;" xml:space="preserve">
<style type="text/css">
	.st0{fill:#FFFFFF;}
</style>
<path class="st0" d="M1.7,9.8L10.4,2c0.9-0.8,2.3-0.8,3.2,0l8.7,7.8c0.2,0.1,0.3,0.2,0.5,0.2c0.2,0,0.4-0.1,0.6-0.2
	c0.3-0.3,0.3-0.7,0-1L14.7,1c-1.5-1.3-3.9-1.3-5.4,0L0.6,8.8c-0.3,0.3-0.3,0.7,0,1C0.9,10.1,1.4,10.1,1.7,9.8z M22.3,10.4
	c-0.3,0-0.6,0.1-0.9,0.2l-6.5,3.7l-0.1-0.1c-1.5-1.3-3.9-1.3-5.4,0L8.5,15l0.7-0.6l-6.5-3.7c-0.3-0.2-0.6-0.2-0.9-0.2
	c-0.9,0-1.7,0.7-1.7,1.6V24h24V12.1C24,11.1,23.2,10.4,22.3,10.4z M1.5,21.2v-9.2c0-0.1,0-0.1,0.1-0.1c0,0,0.1-0.1,0.1-0.1
	c0,0,0.1,0,0.1,0L8,15.4L0.6,22L1.5,21.2z M2.3,22.6l8.1-7.3c0.9-0.8,2.3-0.8,3.2,0l8.1,7.3H2.3z M22.5,21.2L16,15.4l6.2-3.5
	c0,0,0.1,0,0.1,0c0,0,0.2,0,0.2,0.2V21.2z M7.8,8.3c0,2.3,1.9,4.2,4.2,4.2c2.3,0,4.2-1.9,4.2-4.2S14.3,4.1,12,4.1
	C9.7,4.1,7.8,6,7.8,8.3z M14.4,6.6c0.2,0.2,0.2,0.6,0,0.8l-2.8,3c-0.2,0.2-0.6,0.2-0.8,0L9.6,9.3c-0.2-0.2-0.2-0.6,0-0.8
	c0.2-0.2,0.6-0.2,0.8,0l0.3,0.3C11,9,11.3,9,11.6,8.8l2-2.2C13.8,6.4,14.2,6.4,14.4,6.6z"/>
</svg>
