<?xml version="1.0" encoding="utf-8"?>
<!-- Generator: Adobe Illustrator 23.0.1, SVG Export Plug-In . SVG Version: 6.00 Build 0)  -->
<svg version="1.1" id="Layer_1" xmlns="http://www.w3.org/2000/svg" xmlns:xlink="http://www.w3.org/1999/xlink" x="0px" y="0px"
	 viewBox="0 0 24 24" style="enable-background:new 0 0 24 24;" xml:space="preserve">
<style type="text/css">
	.st0{fill:#FFFFFF;}
</style>
<path class="st0" d="M21.2,0.1H2.8c-1.5,0-2.8,1.2-2.8,2.8v18.3c0,1.5,1.2,2.8,2.8,2.8h18.3c1.5,0,2.8-1.2,2.8-2.8V2.8
	C23.9,1.3,22.7,0.1,21.2,0.1z M16.7,6.2h-2.3c-0.5,0-0.9,0.4-0.9,0.9v2.6h3.3L16.2,13h-2.8v8.2H10V13H7.3V9.7H10V7.1
	c0-2.4,1.9-4.3,4.3-4.3h2.3V6.2z"/>
</svg>
