<?xml version="1.0" encoding="UTF-8" standalone="no"?>
<!DOCTYPE svg PUBLIC "-//W3C//DTD SVG 1.1//EN" "http://www.w3.org/Graphics/SVG/1.1/DTD/svg11.dtd">
<svg version="1.1" xmlns="http://www.w3.org/2000/svg" xmlns:xlink="http://www.w3.org/1999/xlink" preserveAspectRatio="xMidYMid meet" viewBox="0 0 22 22" width="20" height="22"><defs><path d="M13.49 2.2L14.72 2.63L15.88 3.21L16.94 3.93L17.9 4.77L18.75 5.73L19.47 6.8L20.05 7.95L20.47 9.19L20.74 10.49L20.83 11.85L20.74 13.2L20.47 14.5L20.05 15.74L19.47 16.89L18.75 17.96L17.9 18.92L16.94 19.76L15.88 20.48L14.72 21.06L13.49 21.49L12.19 21.75L10.83 21.85L9.47 21.75L8.17 21.49L6.94 21.06L5.78 20.48L4.72 19.76L3.76 18.92L2.91 17.96L2.2 16.89L1.62 15.74L1.19 14.5L0.92 13.2L0.83 11.85L0.92 10.49L1.19 9.19L1.62 7.95L2.2 6.8L2.91 5.73L3.76 4.77L4.72 3.93L5.78 3.21L6.94 2.63L8.17 2.2L9.47 1.94L10.83 1.85L12.19 1.94L13.49 2.2ZM13.39 14.11L12.38 15.6L12.01 17.43L12.02 17.78L12.06 18.13L12.12 18.47L12.21 18.8L12.32 19.01L12.49 19.15L12.7 19.22L12.93 19.2L14.81 18.38L16.37 17.11L17.56 15.48L18.28 13.57L18.29 13.34L18.21 13.13L18.06 12.96L17.85 12.87L17.57 12.81L17.29 12.76L17 12.74L16.71 12.73L14.88 13.1L13.39 14.11ZM4.34 12.76L4.08 12.8L3.82 12.85L3.6 12.94L3.45 13.11L3.37 13.32L3.38 13.55L4.09 15.45L5.26 17.08L6.8 18.35L8.66 19.18L8.89 19.2L9.1 19.13L9.28 18.99L9.39 18.78L9.47 18.45L9.53 18.12L9.57 17.78L9.58 17.43L9.21 15.6L8.21 14.11L6.71 13.1L4.88 12.73L4.61 12.74L4.34 12.76ZM7.75 4.85L6.4 5.61L5.24 6.63L4.3 7.87L3.62 9.3L3.59 9.51L3.63 9.7L3.73 9.87L3.88 10L4.07 10.07L4.28 10.07L4.31 10.06L4.33 10.06L4.36 10.06L4.38 10.05L4.42 10.05L4.47 10.04L4.53 10.03L4.6 10.01L4.67 10L4.74 9.99L4.81 9.98L5.03 9.95L5.26 9.91L5.49 9.88L5.74 9.85L5.99 9.81L6.25 9.78L7.01 9.7L7.77 9.63L8.54 9.57L9.3 9.53L10.07 9.5L10.83 9.49L11.59 9.5L12.36 9.53L13.13 9.57L13.89 9.63L14.66 9.7L15.41 9.78L15.67 9.81L15.93 9.85L16.17 9.88L16.41 9.91L16.63 9.95L16.85 9.98L16.93 9.99L17 10L17.06 10.01L17.13 10.03L17.19 10.04L17.25 10.05L17.28 10.05L17.31 10.06L17.33 10.06L17.35 10.06L17.38 10.07L17.59 10.07L17.78 10L17.93 9.87L18.04 9.7L18.08 9.51L18.04 9.3L17.36 7.87L16.42 6.63L15.26 5.61L13.91 4.85L12.42 4.37L10.83 4.2L9.24 4.37L7.75 4.85Z" id="a2Rpeus6Gt"></path></defs><g><g><g><use xlink:href="#a2Rpeus6Gt" opacity="1" fill="#699999" fill-opacity="1"></use><g><use xlink:href="#a2Rpeus6Gt" opacity="1" fill-opacity="0" stroke="#000000" stroke-width="1" stroke-opacity="0"></use></g></g></g></g></svg>
