<svg width="149" height="199" viewBox="0 0 149 199" xmlns="http://www.w3.org/2000/svg"><title>noun_102543_cc</title><g stroke="#585858" stroke-width=".5" fill="#585858" fill-rule="evenodd" opacity=".05"><path d="M74.335 107h-.668c-21.838 0-39.665-17.928-39.665-39.89V40.89C33.78 18.928 51.606 1 73.444 1h.668C96.173 1 114 18.928 114 40.89v25.996C114 89.072 96.173 107 74.335 107zM138.674 198H10.326C5.22 198 1 193.765 1 188.64v-18.053C1 143.842 22.761 122 49.408 122h50.184C126.24 122 148 143.842 148 170.587v18.052c0 5.126-4.219 9.361-9.326 9.361z"/></g></svg>